<svg width="24" height="24" viewBox="0 0 24 24" fill="none" xmlns="http://www.w3.org/2000/svg">
<path d="M6.07637 3H17.9236C18.3662 3 18.75 3.37035 18.75 3.82912V7.33717C18.75 7.79594 18.3662 8.16629 17.9236 8.16629H15.4896C14.9432 8.16629 14.7072 8.47672 14.7072 8.83234V20.3192C14.7072 20.7043 14.3978 21 14.0287 21H10.0007C9.63153 21 9.33681 20.7043 9.33681 20.3192V8.72821C9.33681 8.37259 9.01175 8.16531 8.7611 8.16531H6.07637C5.61913 8.16629 5.25 7.79594 5.25 7.33717V3.82912C5.25 3.37035 5.61913 3 6.07637 3Z" fill="#98A1B2"/>
</svg>
