<svg width="24" height="24" viewBox="0 0 24 24" fill="none" xmlns="http://www.w3.org/2000/svg">
<path fill-rule="evenodd" clip-rule="evenodd" d="M16.9976 8H17.9976C19.0976 8 19.9976 8.9 19.9976 10V20C19.9976 21.1 19.0976 22 17.9976 22H5.99756C4.89756 22 3.99756 21.1 3.99756 20V10C3.99756 8.9 4.89756 8 5.99756 8H6.99756L6.99756 8.00247H8.895L8.89756 7.93541V8H15.0976V6C15.0976 4.29 13.7076 2.9 11.9976 2.9C10.5474 2.9 9.32746 3.8996 8.99012 5.24627L7.20323 4.577C7.81659 2.5095 9.73186 1 11.9976 1C14.7576 1 16.9976 3.24 16.9976 6V8ZM9.99756 15C9.99756 16.1 10.8976 17 11.9976 17C13.0976 17 13.9976 16.1 13.9976 15C13.9976 13.9 13.0976 13 11.9976 13C10.8976 13 9.99756 13.9 9.99756 15Z" fill="#98A1B2"/>
</svg>
