<svg width="24" height="24" viewBox="0 0 24 24" fill="none" xmlns="http://www.w3.org/2000/svg">
<path d="M1.5 4.3C1.5 2.76 2.76 1.5 4.3 1.5C5.84 1.5 7.1 2.76 7.1 4.3C7.1 5.84 5.84 7.1 4.3 7.1C2.76 7.1 1.5 5.84 1.5 4.3Z" fill="#98A1B2"/>
<path d="M1.5 11.9999C1.5 10.4599 2.76 9.19989 4.3 9.19989C5.84 9.19989 7.1 10.4599 7.1 11.9999C7.1 13.5399 5.84 14.7999 4.3 14.7999C2.76 14.7999 1.5 13.5399 1.5 11.9999Z" fill="#98A1B2"/>
<path d="M4.3 16.9C2.76 16.9 1.5 18.16 1.5 19.7C1.5 21.24 2.76 22.5 4.3 22.5C5.84 22.5 7.1 21.24 7.1 19.7C7.1 18.16 5.84 16.9 4.3 16.9Z" fill="#98A1B2"/>
<path d="M9.89995 2.89999H21.7999C22.2199 2.89999 22.4999 3.17999 22.4999 3.59999V4.99999C22.4999 5.41999 22.2199 5.69999 21.7999 5.69999H9.89995C9.47995 5.69999 9.19995 5.41999 9.19995 4.99999V3.59999C9.19995 3.17999 9.47995 2.89999 9.89995 2.89999Z" fill="#98A1B2"/>
<path d="M21.7999 10.6H9.89995C9.47995 10.6 9.19995 10.88 9.19995 11.3V12.7C9.19995 13.12 9.47995 13.4 9.89995 13.4H21.7999C22.2199 13.4 22.4999 13.12 22.4999 12.7V11.3C22.4999 10.88 22.2199 10.6 21.7999 10.6Z" fill="#98A1B2"/>
<path d="M9.89995 18.2999H21.7999C22.2199 18.2999 22.4999 18.5799 22.4999 18.9999V20.3999C22.4999 20.8199 22.2199 21.0999 21.7999 21.0999H9.89995C9.47995 21.0999 9.19995 20.8199 9.19995 20.3999V18.9999C9.19995 18.5799 9.47995 18.2999 9.89995 18.2999Z" fill="#98A1B2"/>
</svg>
