<svg width="24" height="24" viewBox="0 0 24 24" fill="none" xmlns="http://www.w3.org/2000/svg">
<path fill-rule="evenodd" clip-rule="evenodd" d="M7.47185 20.0063L10.425 17.0531C10.95 17.1844 11.475 17.3156 12 17.3156C12.525 17.3156 13.05 17.25 13.575 17.0531L16.5281 20.0063C15.15 20.7938 13.6406 21.1875 12 21.1875C10.3594 21.1875 8.84998 20.7938 7.47185 20.0063ZM3.99375 7.47175L6.94687 10.4249C6.61875 11.4092 6.61875 12.5249 6.94687 13.5092L3.99375 16.4624C3.20625 15.1499 2.8125 13.6405 2.8125 11.9999C2.8125 10.3592 3.20625 8.84987 3.99375 7.47175ZM16.5281 3.99375L13.575 6.94688C13.05 6.81563 12.525 6.75 12 6.75C11.475 6.75 10.95 6.81563 10.425 7.0125L7.47185 3.99375C8.84998 3.20625 10.3594 2.8125 12 2.8125C13.6406 2.8125 15.15 3.20625 16.5281 3.99375ZM13.5094 15.6749C12.9844 15.8061 12.525 15.9374 12 15.9374C11.475 15.9374 11.0156 15.8061 10.4906 15.6749C10.0312 15.478 9.57185 15.2155 9.1781 14.8217C7.66873 13.3124 7.66873 10.8186 9.1781 9.24362C9.57185 8.84987 10.0312 8.58737 10.4906 8.3905C10.95 8.19362 11.475 8.128 12 8.128C12.525 8.128 12.9844 8.25925 13.5094 8.3905C13.9687 8.58737 14.4281 8.84987 14.8219 9.24362C16.3312 10.753 16.3312 13.2467 14.8219 14.8217C14.4281 15.1499 13.9687 15.478 13.5094 15.6749ZM20.006 16.5281L17.0529 13.575C17.381 12.5906 17.381 11.475 17.0529 10.4906L20.006 7.53751C20.7935 8.91564 21.1873 10.425 21.1873 12.0656C21.1873 13.7063 20.7935 15.15 20.006 16.5281ZM19.4156 4.58437C17.4469 2.61562 14.8219 1.5 12 1.5C9.17812 1.5 6.55312 2.61562 4.58437 4.58437C2.61562 6.55312 1.5 9.17812 1.5 12C1.5 14.8219 2.61562 17.4469 4.58437 19.4156C6.55312 21.3844 9.17812 22.5 12 22.5C14.8219 22.5 17.4469 21.3844 19.4156 19.4156C21.3844 17.4469 22.5 14.8219 22.5 12C22.5 9.17812 21.3844 6.55312 19.4156 4.58437Z" fill="#98A1B2"/>
</svg>
