<svg width="16" height="16" viewBox="0 0 16 16" fill="none" xmlns="http://www.w3.org/2000/svg">
<path d="M15 10.67C15.5523 10.67 16 10.2223 16 9.67003V1.00003C16 0.447747 15.5523 3.14713e-05 15 3.14713e-05L6.33 3.05176e-05C5.77772 3.05176e-05 5.33 0.447746 5.33 1.00003V1.67003C5.33 2.22231 5.77771 2.67003 6.33 2.67003L11.4391 2.67003L2.67008 11.439V6.32994C2.67008 5.77766 2.22236 5.32994 1.67008 5.32994H1C0.447716 5.32994 0 5.77766 0 6.32994V14.9999C0 15.5522 0.447716 15.9999 1 15.9999H9.67C10.2223 15.9999 10.67 15.5522 10.67 14.9999V14.3299C10.67 13.7777 10.2223 13.3299 9.67 13.3299H4.55513L13.3299 4.55515V9.67003C13.3299 10.2223 13.7776 10.67 14.3299 10.67H15Z" fill="#0C6CF2"/>
</svg>
