<svg width="24" height="24" viewBox="0 0 24 24" fill="none" xmlns="http://www.w3.org/2000/svg">
<path d="M12 24C18.6274 24 24 18.6274 24 12C24 5.37258 18.6274 0 12 0C5.37258 0 0 5.37258 0 12C0 18.6274 5.37258 24 12 24Z" fill="url(#paint0_linear)"/>
<path d="M17.943 17.1859L13.3574 6.10338C13.0982 5.5307 12.7151 5.25 12.2081 5.25H11.8025C11.2955 5.25 10.9124 5.5307 10.6533 6.10338L8.65916 10.9317H7.14924C6.93184 10.9326 6.72355 11.0191 6.56957 11.1726C6.41558 11.3261 6.32833 11.5341 6.32675 11.7514V11.7627C6.32833 11.9801 6.41558 12.1881 6.56957 12.3415C6.72355 12.495 6.93184 12.5815 7.14924 12.5824H7.9603L6.05633 17.1859C6.02032 17.2869 6.00129 17.3932 6 17.5004C6 17.7587 6.07887 17.9608 6.22535 18.118C6.37183 18.2752 6.5746 18.3537 6.83377 18.3537C7.00393 18.3514 7.1692 18.2964 7.30687 18.1964C7.45335 18.0954 7.55475 17.9494 7.63362 17.781L9.72929 12.5822H11.1827C11.4001 12.5813 11.6084 12.4948 11.7624 12.3413C11.9164 12.1879 12.0037 11.9799 12.0052 11.7625V11.74C12.0037 11.5226 11.9164 11.3146 11.7624 11.1612C11.6084 11.0077 11.4001 10.9212 11.1827 10.9203H10.4054L12.0053 6.93426L16.3657 17.781C16.4445 17.9494 16.5459 18.0955 16.6924 18.1965C16.8301 18.2965 16.9954 18.3514 17.1657 18.3537C17.4248 18.3537 17.6276 18.2751 17.7741 18.1179C17.9206 17.9607 17.9994 17.7586 17.9994 17.5003C18.0037 17.3927 17.9844 17.2854 17.943 17.1859Z" fill="white"/>
<defs>
<linearGradient id="paint0_linear" x1="21.768" y1="5.448" x2="3.912" y2="20.472" gradientUnits="userSpaceOnUse">
<stop offset="0" stop-color="#B6509E"/>
<stop offset="1" stop-color="#2EBAC6"/>
</linearGradient>
</defs>
</svg>
