<svg width="24" height="24" viewBox="0 0 24 24" fill="none" xmlns="http://www.w3.org/2000/svg">
<path d="M12 24C18.6274 24 24 18.6274 24 12C24 5.37258 18.6274 0 12 0C5.37258 0 0 5.37258 0 12C0 18.6274 5.37258 24 12 24Z" fill="#302C2C"/>
<path fill-rule="evenodd" clip-rule="evenodd" d="M11.6222 20.25C11.4197 20.229 11.2172 20.2103 11.0147 20.1863C9.92595 20.0564 8.87452 19.7085 7.92321 19.1632C7.90896 19.1558 7.89621 19.1445 7.86846 19.1257C9.52296 17.8882 11.17 16.6583 12.826 15.4208L13.3247 15.906C13.6022 16.1775 13.8812 16.446 14.1535 16.7213C14.221 16.7887 14.2697 16.788 14.3485 16.7475C15.1732 16.3358 15.8779 15.7184 16.3945 14.955L16.4747 14.8365C16.498 14.8635 16.5197 14.8853 16.5377 14.9093C17.113 15.6757 17.6875 16.4422 18.265 17.2065C18.3152 17.2725 18.3092 17.3115 18.256 17.3715C16.9187 18.891 15.2567 19.827 13.2535 20.1473C13.0015 20.1877 12.7457 20.2028 12.4915 20.2305C12.4577 20.2343 12.424 20.2432 12.391 20.25H11.6222ZM12.3497 3.75C12.4892 3.76425 12.6295 3.77925 12.7697 3.792C13.9517 3.9045 15.0572 4.25475 16.087 4.842C16.102 4.851 16.1147 4.8615 16.1395 4.8795L11.101 8.49375C11.0342 8.43075 10.9697 8.37075 10.906 8.3085C10.552 7.9635 10.1965 7.61925 9.84471 7.27125C9.78846 7.21575 9.74571 7.20975 9.67521 7.245C8.83586 7.65922 8.11961 8.28601 7.59771 9.063L7.52271 9.1755L5.67171 6.7095C5.85846 6.5115 6.03096 6.31425 6.21771 6.132C7.43496 4.94475 8.88021 4.1895 10.555 3.88575C10.8775 3.82725 11.2067 3.80775 11.533 3.7695C11.5697 3.76575 11.6065 3.75675 11.6425 3.75H12.349H12.3497ZM4.84371 7.9005L8.58996 12.8115L7.83396 13.587C7.64571 13.7797 7.45896 13.9747 7.26696 14.1645C7.21296 14.2185 7.21071 14.2597 7.24371 14.3258C7.65735 15.1653 8.28395 15.8816 9.06096 16.4032C9.08721 16.4198 9.11346 16.437 9.13821 16.4557C9.14271 16.4587 9.14496 16.4663 9.15846 16.4918L6.71271 18.3263C5.25021 17.067 4.30146 15.5152 3.92046 13.6335C3.51246 11.619 3.84321 9.7155 4.84446 7.9005H4.84371ZM15.475 11.178L16.1635 10.4633C16.3555 10.2638 16.5445 10.062 16.741 9.86775C16.8025 9.807 16.8017 9.76125 16.7657 9.68925C16.3494 8.83965 15.7154 8.11557 14.9282 7.59075C14.9005 7.572 14.8735 7.55175 14.8262 7.518L17.2855 5.673C18.6782 6.8655 19.603 8.3355 20.0275 10.1093C20.5577 12.3232 20.0852 14.5132 19.1672 16.0553L15.475 11.178Z" fill="white"/>
</svg>
