<svg width="24" height="24" viewBox="0 0 24 24" fill="none" xmlns="http://www.w3.org/2000/svg">
<path fill-rule="evenodd" clip-rule="evenodd" d="M5.75007 21C4.64551 21 3.75008 20.1046 3.75007 19L3.75 5.00001C3.74999 3.89544 4.64543 3 5.75 3L18.25 3.00003C19.3546 3.00003 20.25 3.89546 20.25 5.00003V19C20.25 20.1046 19.3546 21 18.25 21H5.75007ZM7.34355 7.00002C7.06741 7.00002 6.84355 7.22388 6.84355 7.50002V8.00002C6.84355 8.27616 7.06741 8.50002 7.34355 8.50002H14.5935C14.8697 8.50002 15.0935 8.27616 15.0935 8.00002V7.50002C15.0935 7.22388 14.8697 7.00002 14.5935 7.00002H7.34355ZM6.84355 11C6.84355 10.7239 7.06741 10.5 7.34355 10.5H16.656C16.9322 10.5 17.156 10.7239 17.156 11V11.5C17.156 11.7762 16.9322 12 16.656 12H7.34355C7.06741 12 6.84355 11.7762 6.84355 11.5V11ZM7.34355 14C7.06741 14 6.84355 14.2239 6.84355 14.5V15C6.84355 15.2762 7.06741 15.5 7.34355 15.5H11.4998C11.7759 15.5 11.9998 15.2762 11.9998 15V14.5C11.9998 14.2239 11.7759 14 11.4998 14H7.34355Z" fill="#98A1B2"/>
</svg>
