<svg width="24" height="24" viewBox="0 0 24 24" fill="none" xmlns="http://www.w3.org/2000/svg">
<path d="M1.19403 6.56716C1.19403 6.89689 0.926737 7.16418 0.597015 7.16418C0.267293 7.16418 0 6.89689 0 6.56716V4.57678C0 3.22496 0.125144 2.57691 0.485213 1.90364C0.811421 1.29369 1.29369 0.811421 1.90364 0.485213C2.57691 0.125144 3.22496 0 4.57678 0H6.56716C6.89689 0 7.16418 0.267293 7.16418 0.597015C7.16418 0.926737 6.89689 1.19403 6.56716 1.19403H4.57678C3.40522 1.19403 2.94339 1.28321 2.46675 1.53812C2.06487 1.75305 1.75305 2.06487 1.53812 2.46675C1.28321 2.94339 1.19403 3.40522 1.19403 4.57678V6.56716Z" fill="#98A1B2"/>
<path d="M7.28359 8.23881C6.82198 8.23881 6.44777 8.61302 6.44777 9.07463V10.7463C6.44777 11.2079 6.82198 11.5821 7.28359 11.5821C7.74521 11.5821 8.11942 11.2079 8.11942 10.7463V9.07463C8.11942 8.61302 7.74521 8.23881 7.28359 8.23881Z" fill="#98A1B2"/>
<path d="M16.7165 8.23881C16.2548 8.23881 15.8806 8.61302 15.8806 9.07463V10.7463C15.8806 11.2079 16.2548 11.5821 16.7165 11.5821C17.1781 11.5821 17.5523 11.2079 17.5523 10.7463V9.07463C17.5523 8.61302 17.1781 8.23881 16.7165 8.23881Z" fill="#98A1B2"/>
<path d="M8.14657 17.5132C7.88376 17.3141 7.83212 16.9396 8.03124 16.6768C8.23036 16.414 8.60482 16.3624 8.86763 16.5615C9.76551 17.2418 10.9105 17.6716 11.9403 17.6716C13.0237 17.6716 14.2152 17.2065 15.1271 16.4724C15.3839 16.2656 15.7597 16.3062 15.9665 16.5631C16.1732 16.8199 16.1326 17.1957 15.8758 17.4025C14.7616 18.2995 13.3114 18.8657 11.9403 18.8657C10.6341 18.8657 9.24163 18.3429 8.14657 17.5132Z" fill="#98A1B2"/>
<path d="M10.2687 14.3284C10.2687 14.6581 10.536 14.9254 10.8657 14.9254C12.3946 14.9254 13.0149 14.1472 13.0149 12.5373V8.83582C13.0149 8.5061 12.7476 8.23881 12.4179 8.23881C12.0882 8.23881 11.8209 8.5061 11.8209 8.83582V12.5373C11.8209 13.5397 11.6681 13.7313 10.8657 13.7313C10.536 13.7313 10.2687 13.9986 10.2687 14.3284Z" fill="#98A1B2"/>
<path d="M23.403 7.16418C23.0733 7.16418 22.806 6.89689 22.806 6.56716V4.57678C22.806 3.40522 22.7168 2.94339 22.4619 2.46675C22.247 2.06487 21.9351 1.75305 21.5333 1.53812C21.0566 1.28321 20.5948 1.19403 19.4232 1.19403H17.4328C17.1031 1.19403 16.8358 0.926737 16.8358 0.597015C16.8358 0.267293 17.1031 0 17.4328 0H19.4232C20.775 0 21.4231 0.125144 22.0964 0.485213C22.7063 0.811421 23.1886 1.29369 23.5148 1.90364C23.8749 2.57691 24 3.22496 24 4.57678V6.56716C24 6.89689 23.7327 7.16418 23.403 7.16418Z" fill="#98A1B2"/>
<path d="M1.19403 17.4328C1.19403 17.1031 0.926737 16.8358 0.597015 16.8358C0.267293 16.8358 0 17.1031 0 17.4328V19.4232C0 20.775 0.125144 21.4231 0.485213 22.0964C0.811421 22.7063 1.29369 23.1886 1.90364 23.5148C2.57691 23.8749 3.22496 24 4.57678 24H6.56716C6.89689 24 7.16418 23.7327 7.16418 23.403C7.16418 23.0733 6.89689 22.806 6.56716 22.806H4.57678C3.40522 22.806 2.94339 22.7168 2.46675 22.4619C2.06487 22.247 1.75305 21.9351 1.53812 21.5333C1.28321 21.0566 1.19403 20.5948 1.19403 19.4232V17.4328Z" fill="#98A1B2"/>
<path d="M23.403 16.8358C23.0733 16.8358 22.806 17.1031 22.806 17.4328V19.4232C22.806 20.5948 22.7168 21.0566 22.4619 21.5333C22.247 21.9351 21.9351 22.247 21.5333 22.4619C21.0566 22.7168 20.5948 22.806 19.4232 22.806H17.4328C17.1031 22.806 16.8358 23.0733 16.8358 23.403C16.8358 23.7327 17.1031 24 17.4328 24H19.4232C20.775 24 21.4231 23.8749 22.0964 23.5148C22.7063 23.1886 23.1886 22.7063 23.5148 22.0964C23.8749 21.4231 24 20.775 24 19.4232V17.4328C24 17.1031 23.7327 16.8358 23.403 16.8358Z" fill="#98A1B2"/>
</svg>
