<svg width="24" height="24" viewBox="0 0 24 24" fill="none" xmlns="http://www.w3.org/2000/svg">
<path d="M12 24C18.6274 24 24 18.6274 24 12C24 5.37258 18.6274 0 12 0C5.37258 0 0 5.37258 0 12C0 18.6274 5.37258 24 12 24Z" fill="#8DC351"/>
<path d="M15.9049 7.90055C15.3229 6.42155 13.8634 6.28805 12.1639 6.61805L11.5587 4.5083L10.2747 4.87655L10.8642 6.93155C10.5267 7.02755 10.1832 7.13405 9.84192 7.23905L9.24942 5.17055L7.96617 5.53805L8.56992 7.6478C8.29392 7.7333 8.02242 7.8173 7.75617 7.8938L7.75392 7.8863L5.98242 8.39405L6.37617 9.76655C6.37617 9.76655 7.31967 9.47555 7.30842 9.49805C7.82892 9.3488 8.08467 9.6023 8.20842 9.84905L9.86592 15.6286C9.88992 15.7988 9.86892 16.0876 9.50592 16.1926C9.52617 16.2023 8.57142 16.4596 8.57142 16.4596L8.75667 18.0668L10.4277 17.5868C10.7389 17.4991 11.0464 17.4166 11.3472 17.3318L11.9599 19.4656L13.2424 19.0981L12.6372 16.9868C12.9812 16.8955 13.3242 16.8005 13.6662 16.7018L14.2677 18.8041L15.5524 18.4358L14.9419 16.3058C17.0652 15.5626 18.4204 14.5853 18.0267 12.5033C17.7102 10.8278 16.7337 10.3193 15.4234 10.3763C16.0594 9.7838 16.3332 8.98205 15.9049 7.90055ZM15.4174 12.9781C15.8749 14.5733 13.0924 15.1748 12.2224 15.4253L11.4117 12.5978C12.2817 12.3481 14.9397 11.3153 15.4167 12.9788L15.4174 12.9781ZM13.6759 9.16055C14.0914 10.6118 11.7657 11.0956 11.0404 11.3033L10.3054 8.73905C11.0299 8.5313 13.2417 7.6478 13.6759 9.1613V9.16055Z" fill="white"/>
</svg>
