<svg width="24" height="24" viewBox="0 0 24 24" fill="none" xmlns="http://www.w3.org/2000/svg">
<path d="M18.5779 16.3853L11.9999 9.80732L5.42197 16.3853L10.3555 21.3188C11.2637 22.2271 12.7363 22.2271 13.6445 21.3188L21.3188 13.6445C22.2271 12.7363 22.2271 11.2637 21.3188 10.3555L13.6445 2.68117C12.7363 1.77294 11.2637 1.77294 10.3555 2.68117L8.16281 4.87386L11.9999 8.71099L15.8371 4.87383L16.3853 5.42199L12.5481 9.25916L16.1112 12.8222L19.9484 8.98507L20.4965 9.53324L16.6594 13.3704L19.1261 15.8372L18.5779 16.3853Z" fill="#98A1B2"/>
<path d="M7.61465 5.42203L2.68117 10.3555C1.77294 11.2637 1.77294 12.7363 2.68117 13.6445L4.8738 15.8371L11.4518 9.25916L7.61465 5.42203Z" fill="#98A1B2"/>
</svg>
