<svg width="24" height="24" viewBox="0 0 24 24" fill="none" xmlns="http://www.w3.org/2000/svg">
<path fill-rule="evenodd" clip-rule="evenodd" d="M17.1896 9.55614L18.2998 8.44868L18.5049 8.65328C18.6414 8.78944 18.8206 8.85787 18.9998 8.85787C19.179 8.85787 19.3582 8.78944 19.4947 8.65328L20.1946 7.95501C20.4683 7.68198 20.4683 7.24068 20.1946 6.96765L15.2947 2.07977C15.021 1.80674 14.5786 1.80674 14.3049 2.07977L13.6049 2.77804C13.3312 3.05106 13.3312 3.49237 13.6049 3.76539L13.81 3.96998L9.19984 8.56879L8.99474 8.36419C8.72104 8.09117 8.27865 8.09117 8.00495 8.36419L7.30495 9.06246C7.03126 9.33549 7.03126 9.77679 7.30495 10.0498L12.2049 14.9377C12.3414 15.0739 12.5206 15.1423 12.6998 15.1423C12.879 15.1423 13.0582 15.0739 13.1947 14.9377L13.8947 14.2394C14.1684 13.9664 14.1684 13.5251 13.8947 13.2521L13.6896 13.0475L14.7998 11.94L19.9048 17.0325C20.0413 17.1687 20.2205 17.2371 20.3997 17.2371C20.5789 17.2371 20.7581 17.1687 20.8946 17.0325L22.2946 15.636C22.5683 15.3629 22.5683 14.9216 22.2946 14.6486L17.1896 9.55614Z" fill="#98A1B2"/>
<path fill-rule="evenodd" clip-rule="evenodd" d="M14.7999 20.0301H14.0999V18.6336C14.0999 18.2481 13.7863 17.9353 13.3999 17.9353H3.59998C3.21359 17.9353 2.89999 18.2481 2.89999 18.6336V20.0301H2.19999C1.8136 20.0301 1.5 20.3422 1.5 20.7284V21.4267C1.5 21.8128 1.8136 22.1249 2.19999 22.1249H14.7999C15.1863 22.1249 15.4999 21.8128 15.4999 21.4267V20.7284C15.4999 20.3422 15.1863 20.0301 14.7999 20.0301Z" fill="#98A1B2"/>
<path fill-rule="evenodd" clip-rule="evenodd" d="M2.89982 14.4441C2.51343 14.4441 2.19983 14.7562 2.19983 15.1424C2.19983 15.5285 2.51343 15.8406 2.89982 15.8406H4.99981C5.3862 15.8406 5.6998 15.5285 5.6998 15.1424C5.6998 14.7562 5.3862 14.4441 4.99981 14.4441H2.89982Z" fill="#98A1B2"/>
<path fill-rule="evenodd" clip-rule="evenodd" d="M6.31476 13.6612C6.58846 13.3882 6.58846 12.9469 6.31476 12.6739L4.83007 11.1921C4.55708 10.9191 4.11328 10.9191 3.84028 11.1921C3.56659 11.4645 3.56659 11.9065 3.84028 12.1795L5.32497 13.6612C5.46147 13.7974 5.64067 13.8658 5.81987 13.8658C5.99906 13.8658 6.17826 13.7974 6.31476 13.6612Z" fill="#98A1B2"/>
</svg>
