<svg width="24" height="24" viewBox="0 0 24 24" fill="none" xmlns="http://www.w3.org/2000/svg">
<path d="M12 2C6.48 2 2 6.48 2 12C2 17.52 6.48 22 12 22C17.52 22 22 17.52 22 12C22 6.48 17.52 2 12 2ZM11 19.93C7.05 19.44 4 16.08 4 12C4 11.38 4.12503 10.125 5.25003 10.125C6.37503 10.125 7.12503 13.5 7.87503 14.25C8.62503 15 9.75003 14.275 9.75003 15.375C9.75003 16.475 9.9 18 11 18C12.1 18 11 19.93 11 19.93ZM17.9 17.39C17.64 16.58 16.9 16 16 16C16 16 15.3705 16.1235 15 16C13.8885 15.6295 15 13.55 15 13C15 12.45 14.55 12 14 12C14 12 9.366 14.5979 8.62503 12.375C8.37804 11.6341 7.44771 10.5523 8 10C8.55228 9.44771 10 10 10 10C10.55 10 11 9.55 11 9C11 9 10.4477 7.55228 11 7C11.5523 6.44771 11.9 7 13 7C14.1 7 15 6.1 15 5V4.59C17.93 5.78 20 8.65 20 12C20 14.08 19.2 15.97 17.9 17.39Z" fill="#98A1B2"/>
</svg>
