<svg width="17" height="16" viewBox="0 0 17 16" fill="none" xmlns="http://www.w3.org/2000/svg">
<path d="M7.66992 0C7.11764 0 6.66992 0.447715 6.66992 1V6.66504H1.00488C0.452598 6.66504 0.00488281 7.11275 0.00488281 7.66504V8.33504C0.00488281 8.88732 0.452598 9.33504 1.00488 9.33504H6.66992V15C6.66992 15.5523 7.11764 16 7.66992 16H8.33992C8.89221 16 9.33992 15.5523 9.33992 15V9.33504H15.0049C15.5572 9.33504 16.0049 8.88732 16.0049 8.33504V7.66504C16.0049 7.11275 15.5572 6.66504 15.0049 6.66504H9.33992V1C9.33992 0.447715 8.89221 0 8.33992 0H7.66992Z" fill="#0C6CF2"/>
</svg>
