<svg width="24" height="24" viewBox="0 0 24 24" fill="none" xmlns="http://www.w3.org/2000/svg">
<path d="M2 9C2 8.44772 2.44772 8 3 8H5.28571C5.838 8 6.28571 8.44772 6.28571 9V21C6.28571 21.5523 5.838 22 5.28571 22H3C2.44772 22 2 21.5523 2 21V9ZM10 3C10 2.44772 10.4477 2 11 2H13C13.5523 2 14 2.44772 14 3V21C14 21.5523 13.5523 22 13 22H11C10.4477 22 10 21.5523 10 21V3ZM18 14.4286C18 13.8763 18.4477 13.4286 19 13.4286H21C21.5523 13.4286 22 13.8763 22 14.4286V21C22 21.5523 21.5523 22 21 22H19C18.4477 22 18 21.5523 18 21V14.4286Z" fill="#98A1B2"/>
</svg>
