<svg width="22" height="16" viewBox="0 0 22 16" fill="none" xmlns="http://www.w3.org/2000/svg">
<path d="M7.93831 1.16219C7.54778 0.771663 6.91462 0.771662 6.5241 1.16219L0.393479 7.2928C0.0029549 7.68333 0.0029549 8.31649 0.393479 8.70702L6.52409 14.8376C6.91462 15.2282 7.54778 15.2282 7.93831 14.8376L8.41207 14.3639C8.80259 13.9733 8.8026 13.3402 8.41207 12.9497L4.79538 9.33297H17.2046L13.5879 12.9497C13.1974 13.3402 13.1974 13.9734 13.5879 14.3639L14.0617 14.8377C14.4522 15.2282 15.0854 15.2282 15.4759 14.8377L21.6065 8.70708C21.997 8.31656 21.997 7.68339 21.6065 7.29287L15.4759 1.16225C15.0854 0.771726 14.4522 0.771726 14.0617 1.16225L13.5879 1.63601C13.1974 2.02654 13.1974 2.6597 13.5879 3.05022L17.2007 6.66297H4.79938L8.41212 3.05022C8.80265 2.65969 8.80265 2.02653 8.41212 1.636L7.93831 1.16219Z" fill="#0C6CF2"/>
</svg>
