<svg width="24" height="24" viewBox="0 0 24 24" fill="none" xmlns="http://www.w3.org/2000/svg">
<path d="M2.00256 11.9866C2.00256 14.3528 2.8314 16.5261 4.20789 18.2419L8.15903 14.6207C7.64611 13.87 7.34556 12.9637 7.34556 11.9866C7.34556 9.63164 9.08805 7.68946 11.3528 7.36487V2.0025C6.14005 2.34846 2.00256 6.68831 2.00256 11.9866Z" fill="#98A1B2"/>
<path d="M22.0049 11.3187C21.6736 6.32833 17.6791 2.33377 12.6887 2.0025V7.36487C14.7344 7.65807 16.3493 9.27232 16.6425 11.3187H22.0049Z" fill="#98A1B2"/>
<path d="M5.11316 19.2244L9.06164 15.6052C9.86776 16.265 10.8976 16.6618 12.021 16.6618C14.3752 16.6618 16.3181 14.9193 16.6427 12.6545H22.0051C21.6584 17.8666 17.3192 22.0048 12.021 22.0048C9.34281 22.0048 6.91241 20.9422 5.11316 19.2244Z" fill="#98A1B2"/>
</svg>
