<svg width="24" height="24" viewBox="0 0 24 24" fill="none" xmlns="http://www.w3.org/2000/svg">
<path d="M21.682 18.7033C21.3191 19.5418 20.8894 20.3136 20.3917 21.0232C19.7132 21.9906 19.1576 22.6602 18.7295 23.032C18.0658 23.6424 17.3547 23.955 16.5933 23.9728C16.0466 23.9728 15.3874 23.8172 14.62 23.5017C13.8501 23.1876 13.1426 23.032 12.4956 23.032C11.8171 23.032 11.0894 23.1876 10.3111 23.5017C9.53156 23.8172 8.90358 23.9816 8.42345 23.9979C7.69325 24.0291 6.96542 23.7076 6.23892 23.032C5.77523 22.6276 5.19525 21.9343 4.50045 20.9521C3.755 19.9032 3.14212 18.687 2.66199 17.3004C2.14778 15.8026 1.89001 14.3523 1.89001 12.9482C1.89001 11.3398 2.23756 9.95259 2.93369 8.7901C3.48078 7.85636 4.20861 7.11978 5.11955 6.57906C6.03048 6.03834 7.01475 5.76279 8.07472 5.74516C8.6547 5.74516 9.41527 5.92456 10.3604 6.27714C11.3029 6.63091 11.9081 6.81031 12.1734 6.81031C12.3718 6.81031 13.044 6.60054 14.1837 6.18233C15.2615 5.79449 16.1711 5.6339 16.9162 5.69716C18.9354 5.86012 20.4524 6.6561 21.4613 8.09013C19.6554 9.18432 18.7621 10.7169 18.7799 12.6829C18.7962 14.2142 19.3517 15.4886 20.4435 16.5004C20.9383 16.97 21.4909 17.333 22.1057 17.5907C21.9724 17.9774 21.8316 18.3477 21.682 18.7033ZM17.051 0.480134C17.051 1.68041 16.6125 2.8011 15.7385 3.8384C14.6837 5.07155 13.4079 5.78412 12.0244 5.67168C12.0067 5.52768 11.9965 5.37613 11.9965 5.21688C11.9965 4.06462 12.4981 2.83147 13.3889 1.8232C13.8337 1.3127 14.3993 0.888225 15.0852 0.549613C15.7696 0.216053 16.417 0.0315842 17.0259 0C17.0436 0.160454 17.051 0.320938 17.051 0.480134Z" fill="#98A1B2"/>
</svg>
