<svg width="24" height="24" viewBox="0 0 24 24" fill="none" xmlns="http://www.w3.org/2000/svg">
<path fill-rule="evenodd" clip-rule="evenodd" d="M12 24C18.6274 24 24 18.6274 24 12C24 5.37258 18.6274 -8.1423e-07 12 -5.24537e-07C5.37258 -2.34843e-07 -8.1423e-07 5.37258 -5.24537e-07 12C-2.34843e-07 18.6274 5.37258 24 12 24ZM5.99585 10.754C5.99623 10.3402 6.33262 10.0044 6.74721 10.004L7.25023 10.0036C7.66482 10.0032 8.00061 10.3384 8.00023 10.7522L7.99674 14.5806L14.5855 8.00384L10.7501 8.00732C10.3355 8.0077 9.99974 7.67252 10.0001 7.25868L10.0006 6.75664C10.001 6.3428 10.3374 6.00702 10.7519 6.00664L17.2604 6.00073C17.675 6.00035 18.0107 6.33553 18.0104 6.74937L18.0044 13.246C18.0041 13.6598 17.6677 13.9956 17.2531 13.996L16.7501 13.9964C16.3355 13.9968 15.9997 13.6616 16.0001 13.2478L16.0036 9.41518L9.4106 15.9961L13.2502 15.9927C13.6648 15.9923 14.0005 16.3275 14.0002 16.7413L13.9997 17.2433C13.9993 17.6572 13.6629 17.993 13.2483 17.9933L6.73993 17.9992C6.32534 17.9996 5.98955 17.6644 5.98993 17.2506L5.99585 10.754Z" fill="#98A1B2"/>
</svg>
