<svg width="60" height="60" viewBox="0 0 60 60" fill="none" xmlns="http://www.w3.org/2000/svg">
<path d="M18 48C14.7 48 12.03 50.7 12.03 54C12.03 57.3 14.7 60 18 60C21.3 60 24 57.3 24 54C24 50.7 21.3 48 18 48ZM0 -1.52588e-05V5.99998H6L16.8 28.77L12.75 36.12C12.27 36.96 12 37.95 12 39C12 42.3 14.7 45 18 45H54V39H19.26C18.84 39 18.51 38.67 18.51 38.25L18.6 37.89L21.3 33H43.65C45.9 33 47.88 31.77 48.9 29.91L59.64 10.44C59.88 10.02 60 9.50998 60 8.99998C60 7.34998 58.65 5.99998 57 5.99998H12.63L9.81 -1.52588e-05H0ZM48 48C44.7 48 42.03 50.7 42.03 54C42.03 57.3 44.7 60 48 60C51.3 60 54 57.3 54 54C54 50.7 51.3 48 48 48Z" fill="#0C6CF2"/>
</svg>
