<svg width="24" height="24" viewBox="0 0 24 24" fill="none" xmlns="http://www.w3.org/2000/svg">
<path d="M21.0513 19.2656L7.33231 5.10667L4.43282 2.11692L3 3.54974L6.15897 6.70872V6.72C5.57231 7.83692 5.25641 9.15692 5.25641 10.5785V16.2195L3 18.4759V19.6041H18.4903L20.7467 21.8605L22.1795 20.4277L21.0513 19.2656ZM12.0256 23C13.2779 23 14.2821 21.9959 14.2821 20.7436H9.76923C9.76923 21.9959 10.7733 23 12.0256 23ZM18.7949 14.7415V10.5897C18.7949 7.11487 16.9446 4.22667 13.7179 3.45949V2.69231C13.7179 1.7559 12.9621 1 12.0256 1C11.0892 1 10.3333 1.7559 10.3333 2.69231V3.45949C10.1641 3.49333 10.0062 3.54974 9.85949 3.59487C9.74667 3.62872 9.63385 3.67385 9.52103 3.71897H9.50974C9.49846 3.71897 9.49846 3.71897 9.48718 3.73026C9.22769 3.83179 8.9682 3.9559 8.72 4.08C8.72 4.08 8.70872 4.08 8.70872 4.09128L18.7949 14.7415Z" fill="#98A1B2"/>
</svg>
