<svg width="24" height="24" viewBox="0 0 24 24" fill="none" xmlns="http://www.w3.org/2000/svg">
<path d="M22 20.25H2C0.895417 20.25 0 19.3266 0 18.1875V5.8125C0 4.6734 0.895417 3.75 2 3.75H22C23.1046 3.75 24 4.6734 24 5.8125V18.1875C24 19.3266 23.1046 20.25 22 20.25ZM5.33333 8.73438V7.01562C5.33333 6.73087 5.10946 6.5 4.83333 6.5H3.16667C2.89054 6.5 2.66667 6.73087 2.66667 7.01562V8.73438C2.66667 9.01913 2.89054 9.25 3.16667 9.25H4.83333C5.10946 9.25 5.33333 9.01913 5.33333 8.73438ZM9.33333 8.73438V7.01562C9.33333 6.73087 9.10946 6.5 8.83333 6.5H7.16667C6.89054 6.5 6.66667 6.73087 6.66667 7.01562V8.73438C6.66667 9.01913 6.89054 9.25 7.16667 9.25H8.83333C9.10946 9.25 9.33333 9.01913 9.33333 8.73438ZM13.3333 8.73438V7.01562C13.3333 6.73087 13.1095 6.5 12.8333 6.5H11.1667C10.8905 6.5 10.6667 6.73087 10.6667 7.01562V8.73438C10.6667 9.01913 10.8905 9.25 11.1667 9.25H12.8333C13.1095 9.25 13.3333 9.01913 13.3333 8.73438ZM17.3333 8.73438V7.01562C17.3333 6.73087 17.1095 6.5 16.8333 6.5H15.1667C14.8905 6.5 14.6667 6.73087 14.6667 7.01562V8.73438C14.6667 9.01913 14.8905 9.25 15.1667 9.25H16.8333C17.1095 9.25 17.3333 9.01913 17.3333 8.73438ZM21.3333 8.73438V7.01562C21.3333 6.73087 21.1095 6.5 20.8333 6.5H19.1667C18.8905 6.5 18.6667 6.73087 18.6667 7.01562V8.73438C18.6667 9.01913 18.8905 9.25 19.1667 9.25H20.8333C21.1095 9.25 21.3333 9.01913 21.3333 8.73438ZM7.33333 12.8594V11.1406C7.33333 10.8559 7.10946 10.625 6.83333 10.625H5.16667C4.89054 10.625 4.66667 10.8559 4.66667 11.1406V12.8594C4.66667 13.1441 4.89054 13.375 5.16667 13.375H6.83333C7.10946 13.375 7.33333 13.1441 7.33333 12.8594ZM11.3333 12.8594V11.1406C11.3333 10.8559 11.1095 10.625 10.8333 10.625H9.16667C8.89054 10.625 8.66667 10.8559 8.66667 11.1406V12.8594C8.66667 13.1441 8.89054 13.375 9.16667 13.375H10.8333C11.1095 13.375 11.3333 13.1441 11.3333 12.8594ZM15.3333 12.8594V11.1406C15.3333 10.8559 15.1095 10.625 14.8333 10.625H13.1667C12.8905 10.625 12.6667 10.8559 12.6667 11.1406V12.8594C12.6667 13.1441 12.8905 13.375 13.1667 13.375H14.8333C15.1095 13.375 15.3333 13.1441 15.3333 12.8594ZM19.3333 12.8594V11.1406C19.3333 10.8559 19.1095 10.625 18.8333 10.625H17.1667C16.8905 10.625 16.6667 10.8559 16.6667 11.1406V12.8594C16.6667 13.1441 16.8905 13.375 17.1667 13.375H18.8333C19.1095 13.375 19.3333 13.1441 19.3333 12.8594ZM5.33333 16.9844V15.2656C5.33333 14.9809 5.10946 14.75 4.83333 14.75H3.16667C2.89054 14.75 2.66667 14.9809 2.66667 15.2656V16.9844C2.66667 17.2691 2.89054 17.5 3.16667 17.5H4.83333C5.10946 17.5 5.33333 17.2691 5.33333 16.9844ZM17.3333 16.9844V15.2656C17.3333 14.9809 17.1095 14.75 16.8333 14.75H7.16667C6.89054 14.75 6.66667 14.9809 6.66667 15.2656V16.9844C6.66667 17.2691 6.89054 17.5 7.16667 17.5H16.8333C17.1095 17.5 17.3333 17.2691 17.3333 16.9844ZM21.3333 16.9844V15.2656C21.3333 14.9809 21.1095 14.75 20.8333 14.75H19.1667C18.8905 14.75 18.6667 14.9809 18.6667 15.2656V16.9844C18.6667 17.2691 18.8905 17.5 19.1667 17.5H20.8333C21.1095 17.5 21.3333 17.2691 21.3333 16.9844Z" fill="#98A1B2"/>
</svg>
