<svg width="24" height="24" viewBox="0 0 24 24" fill="none" xmlns="http://www.w3.org/2000/svg">
<path fill-rule="evenodd" clip-rule="evenodd" d="M20.001 8.00095C20.001 10.2104 18.2114 12 16.002 12C13.7925 12 12.0029 10.2104 12.0029 8.00095C12.0029 5.79149 13.7925 4.00192 16.002 4.00192C18.2114 4.00192 20.001 5.79149 20.001 8.00095ZM8.00391 17.9985C8.00391 15.3392 13.3326 13.9995 16.002 13.9995C18.6713 13.9995 24 15.3392 24 17.9985V19.9981H8.00391V17.9985ZM7 12.0019C8.93375 12.0019 10.5 10.4357 10.5 8.50192C10.5 6.56817 8.93375 5.00192 7 5.00192C5.06625 5.00192 3.5 6.56817 3.5 8.50192C3.5 10.4357 5.06625 12.0019 7 12.0019ZM7 13.7519C7.87319 13.7519 9.07152 13.9157 10.23 14.2424C9.47928 14.5764 8.76469 14.9957 8.2 15.5169C7.52888 16.1363 7.00391 16.9664 7.00391 17.9985V19.0019H0V17.2519C0 14.9244 4.66375 13.7519 7 13.7519Z" fill="#98A1B2"/>
</svg>
