<svg width="24" height="24" viewBox="0 0 24 24" fill="none" xmlns="http://www.w3.org/2000/svg">
<path d="M12 24C18.6274 24 24 18.6274 24 12C24 5.37258 18.6274 0 12 0C5.37258 0 0 5.37258 0 12C0 18.6274 5.37258 24 12 24Z" fill="#EAB300"/>
<path d="M15.8681 11.4223C16.6653 10.8752 17.2125 10.2597 17.2125 9.09854C17.2125 7.25396 15.3778 6.38881 14.2609 6.27914C14.17 6.26911 13.9159 6.26461 13.9159 6.26461L13.9183 4.5L12.1017 4.50437L12.1061 6.26911L10.8894 6.26577L10.8928 4.50771L9.03596 4.50887L9.03378 6.25741C8.70773 6.26526 6.75 6.26294 6.75 6.26294V7.82519C6.75 7.82519 7.24474 7.82519 7.38668 7.82738C8.00008 7.82635 8.27625 8.21463 8.27625 8.48398L8.27728 8.58169V15.3165C8.26853 15.5549 8.07774 15.7408 7.86585 15.7523C7.5875 15.7651 7.17376 15.7555 7.17376 15.7555L6.8166 17.5259L9.04265 17.5281L9.04149 19.2991H10.8929L10.8895 17.5248H12.1062L12.104 19.3018H13.9184L13.9194 17.5349C13.9194 17.5349 14.0193 17.5314 14.0526 17.5314C16.1466 17.5314 17.9722 16.2914 17.9997 14.285C18.0239 12.6422 16.6168 11.6918 15.8681 11.4223ZM10.8883 10.6257V7.9472C11.1368 7.94836 12.053 7.95055 12.5996 7.95055C12.6511 7.95055 12.6932 7.95955 12.7424 7.96199C13.4864 7.99812 13.9496 8.29344 14.1983 8.64919C14.3672 8.89077 14.4426 9.15614 14.4426 9.38024C14.4426 9.59109 14.3861 9.80953 14.3493 9.91457C14.2981 10.0644 14.2209 10.2041 14.1213 10.3273C13.9927 10.4849 13.9186 10.5377 13.8376 10.5946C13.5598 10.7896 13.1705 10.9426 12.6101 10.9697C12.6026 10.9697 10.9149 10.9741 10.8881 10.973L10.8883 10.6257ZM14.9868 14.6023C14.9313 14.7643 14.8479 14.9152 14.7403 15.0483C14.6013 15.2187 14.5218 15.2759 14.4338 15.3372C14.1336 15.548 13.7129 15.7134 13.1071 15.7427C13.0991 15.7427 10.9171 15.7475 10.8883 15.7461V12.4762C11.1567 12.4775 12.505 12.4798 13.0958 12.4798C13.1516 12.4798 13.1969 12.4897 13.2501 12.4926C14.0542 12.5312 14.5548 12.8508 14.8235 13.2353C15.0061 13.4964 15.0877 13.7831 15.0877 14.0252C15.0876 14.2528 15.0264 14.4888 14.9868 14.6023Z" fill="white"/>
</svg>
