<svg width="24" height="24" viewBox="0 0 24 24" fill="none" xmlns="http://www.w3.org/2000/svg">
<path fill-rule="evenodd" clip-rule="evenodd" d="M0 0H1.91667V1H2V1.91667H1.91667V2H1V1.91667H0V0ZM3.75 0H5.58333V2H3.75V0ZM7.41667 0H9.25V2H7.41667V0ZM11.0833 0H12.9167V2H11.0833V0ZM14.75 0H16.5833V2H14.75V0ZM18.4167 0H20.25V2H18.4167V0ZM22.0833 0H24V1.91667H23V2H22.0833V1.91667H22V1H22.0833V0ZM0 5.58333V3.75H2V5.58333H0ZM24 3.75V5.58333H22V3.75H24ZM0 9.25V7.41667H2V9.25H0ZM24 7.41667V9.25H22V7.41667H24ZM0 12.9167V11.0833H2V12.9167H0ZM24 11.0833V12.9167H22V11.0833H24ZM0 16.5833V14.75H2V16.5833H0ZM24 14.75V16.5833H22V14.75H24ZM0 20.25V18.4167H2V20.25H0ZM24 18.4167V20.25H22V18.4167H24ZM1.91667 24H0V22.0833H1V22H1.91667V22.0833H2V23H1.91667V24ZM5.58333 24H3.75V22H5.58333V24ZM9.25 24H7.41667V22H9.25V24ZM12.9167 24H11.0833V22H12.9167V24ZM16.5833 24H14.75V22H16.5833V24ZM20.25 24H18.4167V22H20.25V24ZM22.0833 24V23H22V22.0833H22.0833V22H23V22.0833H24V24H22.0833Z" fill="#98A1B2"/>
</svg>
