<svg width="24" height="24" viewBox="0 0 24 24" fill="none" xmlns="http://www.w3.org/2000/svg">
<path d="M19.9663 4.19921L11.1958 1.00702C10.5312 0.765939 9.79809 0.798349 9.15732 1.09714C8.51656 1.39594 8.02048 1.93671 7.77795 2.60082L2.76165 16.383C2.52057 17.0476 2.55298 17.7807 2.85177 18.4215C3.15057 19.0623 3.69134 19.5583 4.35545 19.8009L13.1259 22.9931C13.7905 23.2342 14.5237 23.2017 15.1644 22.9029C15.8052 22.6042 16.3013 22.0634 16.5438 21.3993L21.5601 7.61711C21.8012 6.95248 21.7688 6.21935 21.47 5.57859C21.1712 4.93782 20.6304 4.44175 19.9663 4.19921ZM14.7882 14.2205C14.9682 14.6482 14.9564 15.1313 14.7541 15.58C14.3521 16.4739 13.3795 16.9664 12.5867 16.6778C11.7938 16.3892 11.3642 15.3864 11.6316 14.4435C11.7675 13.9653 12.0681 13.5865 12.4782 13.377C12.8883 13.1676 13.3581 13.1452 13.8123 13.3105C14.0293 13.386 14.2281 13.5059 14.3962 13.6626C14.5642 13.8193 14.6978 14.0093 14.7882 14.2205ZM12.1632 4.19691C12.2237 4.03076 12.3477 3.89544 12.5079 3.82072C12.6681 3.746 12.8515 3.73799 13.0177 3.79846L16.7764 5.16654C16.9426 5.22702 17.0779 5.35102 17.1526 5.51126C17.2273 5.67151 17.2353 5.85487 17.1749 6.02102C17.1144 6.18717 16.9904 6.32249 16.8302 6.39721C16.6699 6.47193 16.4865 6.47994 16.3204 6.41947L12.5616 5.05139C12.3955 4.99091 12.2602 4.86692 12.1854 4.70667C12.1107 4.54643 12.1027 4.36306 12.1632 4.19691ZM14.3784 21.1357C14.3143 21.1715 14.2431 21.1928 14.1698 21.198C14.0966 21.2033 14.023 21.1925 13.9544 21.1663L8.65378 19.237C8.58438 19.213 8.52108 19.174 8.46837 19.1229C8.41565 19.0718 8.3748 19.0097 8.34868 18.941C8.32109 18.8646 8.31104 18.783 8.31927 18.7022C8.3275 18.6214 8.35381 18.5434 8.39624 18.4741C8.77373 17.8329 9.38056 17.3998 10.1514 17.2214C10.836 17.0631 11.6097 17.1203 12.3302 17.3825C13.0506 17.6448 13.6801 18.0983 14.1028 18.6596C14.5786 19.2917 14.7651 20.0136 14.6421 20.7474C14.63 20.8278 14.6001 20.9044 14.5544 20.9716C14.5088 21.0388 14.4486 21.0949 14.3784 21.1357Z" fill="#98A1B2"/>
</svg>
