<svg width="24" height="24" viewBox="0 0 24 24" fill="none" xmlns="http://www.w3.org/2000/svg">
<path d="M10.5938 3H13.4062C13.8738 3 14.25 3.37617 14.25 3.84375V9.75H17.3332C17.959 9.75 18.2719 10.5059 17.8289 10.9488L12.4816 16.2996C12.218 16.5633 11.7855 16.5633 11.5219 16.2996L6.16758 10.9488C5.72461 10.5059 6.0375 9.75 6.66328 9.75H9.75V3.84375C9.75 3.37617 10.1262 3 10.5938 3ZM21 16.2188V20.1562C21 20.6238 20.6238 21 20.1562 21H3.84375C3.37617 21 3 20.6238 3 20.1562V16.2188C3 15.7512 3.37617 15.375 3.84375 15.375H9.00117L10.7238 17.0977C11.4305 17.8043 12.5695 17.8043 13.2762 17.0977L14.9988 15.375H20.1562C20.6238 15.375 21 15.7512 21 16.2188Z" fill="#98A1B2"/>
</svg>
