<svg width="24" height="24" viewBox="0 0 24 24" fill="none" xmlns="http://www.w3.org/2000/svg">
<path fill-rule="evenodd" clip-rule="evenodd" d="M22.4657 9.44699C22.3831 9.18105 22.164 8.9871 21.9008 8.94669L15.4931 7.96959L12.6281 1.87633C12.3922 1.37456 11.6082 1.37456 11.3723 1.87633L8.50723 7.96959L2.09953 8.94669C1.83633 8.9871 1.61723 9.18105 1.53463 9.44699C1.45204 9.71294 1.52063 10.0046 1.71173 10.2L6.34846 14.943L5.25438 21.6409C5.20958 21.9164 5.31738 22.1948 5.53297 22.3594C5.74927 22.5239 6.03487 22.5445 6.27006 22.4152L12.0002 19.2532L17.731 22.4152C17.8332 22.4718 17.9452 22.4997 18.0565 22.4997C18.2014 22.4997 18.3463 22.4527 18.4681 22.3594C18.6837 22.1948 18.7915 21.9164 18.7467 21.6409L17.6526 14.943L22.2893 10.2C22.4797 10.0046 22.5483 9.71294 22.4657 9.44699Z" fill="#98A1B2"/>
</svg>
