<svg width="24" height="24" viewBox="0 0 24 24" fill="none" xmlns="http://www.w3.org/2000/svg">
<path d="M18.9758 2.964C18.8798 2.964 18.7838 2.94 18.6998 2.892C16.3958 1.704 14.4038 1.2 12.0158 1.2C9.6398 1.2 7.3838 1.764 5.3318 2.892C5.0438 3.048 4.6838 2.94 4.5158 2.652C4.3598 2.364 4.4678 1.992 4.7558 1.836C6.9878 0.624 9.4358 0 12.0158 0C14.5718 0 16.8038 0.564 19.2518 1.824C19.5518 1.98 19.6598 2.34 19.5038 2.628C19.3958 2.844 19.1918 2.964 18.9758 2.964ZM1.8038 9.264C1.6838 9.264 1.5638 9.228 1.4558 9.156C1.1798 8.964 1.1198 8.592 1.3118 8.316C2.4998 6.636 4.0118 5.316 5.8118 4.392C9.5798 2.448 14.4038 2.436 18.1838 4.38C19.9838 5.304 21.4958 6.612 22.6838 8.28C22.8758 8.544 22.8158 8.928 22.5398 9.12C22.2638 9.312 21.8918 9.252 21.6998 8.976C20.6198 7.464 19.2518 6.276 17.6318 5.448C14.1878 3.684 9.7838 3.684 6.3518 5.46C4.7198 6.3 3.3518 7.5 2.2718 9.012C2.1758 9.18 1.9958 9.264 1.8038 9.264ZM9.3038 23.748C9.1478 23.748 8.9918 23.688 8.8838 23.568C7.8398 22.524 7.2758 21.852 6.4718 20.4C5.6438 18.924 5.2118 17.124 5.2118 15.192C5.2118 11.628 8.2598 8.724 12.0038 8.724C15.7478 8.724 18.7958 11.628 18.7958 15.192C18.7958 15.528 18.5318 15.792 18.1958 15.792C17.8598 15.792 17.5958 15.528 17.5958 15.192C17.5958 12.288 15.0878 9.924 12.0038 9.924C8.9198 9.924 6.4118 12.288 6.4118 15.192C6.4118 16.92 6.7958 18.516 7.5278 19.812C8.2958 21.192 8.8238 21.78 9.7478 22.716C9.9758 22.956 9.9758 23.328 9.7478 23.568C9.6158 23.688 9.4598 23.748 9.3038 23.748ZM17.9078 21.528C16.4798 21.528 15.2198 21.168 14.1878 20.46C12.3998 19.248 11.3318 17.28 11.3318 15.192C11.3318 14.856 11.5958 14.592 11.9318 14.592C12.2678 14.592 12.5318 14.856 12.5318 15.192C12.5318 16.884 13.3958 18.48 14.8598 19.464C15.7118 20.04 16.7078 20.316 17.9078 20.316C18.1958 20.316 18.6758 20.28 19.1558 20.196C19.4798 20.136 19.7918 20.352 19.8518 20.688C19.9118 21.012 19.6958 21.324 19.3598 21.384C18.6758 21.516 18.0758 21.528 17.9078 21.528ZM15.4958 24C15.4478 24 15.3878 23.988 15.3398 23.976C13.4318 23.448 12.1838 22.74 10.8758 21.456C9.1958 19.788 8.2718 17.568 8.2718 15.192C8.2718 13.248 9.9278 11.664 11.9678 11.664C14.0078 11.664 15.6638 13.248 15.6638 15.192C15.6638 16.476 16.7798 17.52 18.1598 17.52C19.5398 17.52 20.6558 16.476 20.6558 15.192C20.6558 10.668 16.7558 6.996 11.9558 6.996C8.5478 6.996 5.4278 8.892 4.0238 11.832C3.5558 12.804 3.3158 13.944 3.3158 15.192C3.3158 16.128 3.3998 17.604 4.1198 19.524C4.2398 19.836 4.0838 20.184 3.7718 20.292C3.4598 20.412 3.1118 20.244 3.0038 19.944C2.4158 18.372 2.1278 16.812 2.1278 15.192C2.1278 13.752 2.4038 12.444 2.9438 11.304C4.5398 7.956 8.0798 5.784 11.9558 5.784C17.4158 5.784 21.8558 9.996 21.8558 15.18C21.8558 17.124 20.1998 18.708 18.1598 18.708C16.1198 18.708 14.4638 17.124 14.4638 15.18C14.4638 13.896 13.3478 12.852 11.9678 12.852C10.5878 12.852 9.4718 13.896 9.4718 15.18C9.4718 17.232 10.2638 19.152 11.7158 20.592C12.8558 21.72 13.9478 22.344 15.6398 22.812C15.9638 22.896 16.1438 23.232 16.0598 23.544C15.9998 23.82 15.7478 24 15.4958 24Z" fill="#98A1B2"/>
</svg>
