<svg width="24" height="24" viewBox="0 0 24 24" fill="none" xmlns="http://www.w3.org/2000/svg">
<path fill-rule="evenodd" clip-rule="evenodd" d="M10.7 22.5H13.3V10.7H10.7V22.5Z" fill="#98A1B2"/>
<path fill-rule="evenodd" clip-rule="evenodd" d="M20.5 21.8V11.3C20.5 10.9 20.2 10.6 19.8 10.6H14.6V22.4H19.8C20.2 22.5 20.5 22.2 20.5 21.8Z" fill="#98A1B2"/>
<path fill-rule="evenodd" clip-rule="evenodd" d="M21.8 5.4H18.2C18.4 5 18.6 4.6 18.6 4.1C18.6 2.7 17.4 1.5 16 1.5C13.9 1.5 12.7 3.1 12.1 4.3C11.4 3 10.2 1.5 8.20001 1.5C6.90001 1.5 5.80001 2.5 5.60001 3.7C6.10001 3.9 6.60001 4.2 7.00001 4.5C7.00001 4.4 6.90001 4.2 6.90001 4.1C6.90001 3.4 7.50001 2.8 8.20001 2.8C9.80001 2.8 10.8 4.4 11.2 5.4H8.20001C8.00001 5.4 7.80001 5.3 7.60001 5.2C8.00001 5.8 8.20001 6.5 8.20001 7.2C8.20001 8 8.00001 8.7 7.50001 9.3H21.9C22.3 9.3 22.6 9 22.6 8.6V6.1C22.5 5.7 22.2 5.4 21.8 5.4ZM15.9 5.4H12.9C13.3 4.4 14.3 2.8 15.9 2.8C16.6 2.8 17.2 3.4 17.2 4.1C17.2 4.8 16.7 5.4 15.9 5.4Z" fill="#98A1B2"/>
<path fill-rule="evenodd" clip-rule="evenodd" d="M5.79999 10.7C5.29999 10.9 4.79999 11 4.29999 11C4.09999 11 3.79999 11 3.59999 10.9C3.49999 11 3.39999 11.2 3.39999 11.3V21.8C3.39999 22.2 3.69999 22.5 4.09999 22.5H9.29999V10.7H5.79999Z" fill="#98A1B2"/>
<path d="M4.3 10.1C5.8464 10.1 7.1 8.8464 7.1 7.3C7.1 5.7536 5.8464 4.5 4.3 4.5C2.7536 4.5 1.5 5.7536 1.5 7.3C1.5 8.8464 2.7536 10.1 4.3 10.1Z" fill="#FF3344"/>
</svg>
