<svg width="24" height="24" viewBox="0 0 24 24" fill="none" xmlns="http://www.w3.org/2000/svg">
<path fill-rule="evenodd" clip-rule="evenodd" d="M3.5147 3.51472C2.73365 4.29577 2.73365 5.5621 3.5147 6.34314L9.17156 12L3.5147 17.6569C2.73365 18.4379 2.73365 19.7042 3.5147 20.4853C4.29575 21.2663 5.56208 21.2663 6.34313 20.4853L12 14.8284L17.6568 20.4853C18.4379 21.2663 19.7042 21.2663 20.4853 20.4853C21.2663 19.7042 21.2663 18.4379 20.4853 17.6569L14.8284 12L20.4853 6.34314C21.2663 5.56209 21.2663 4.29576 20.4853 3.51472C19.7042 2.73367 18.4379 2.73367 17.6568 3.51472L12 9.17157L6.34313 3.51472C5.56208 2.73367 4.29575 2.73367 3.5147 3.51472Z" fill="#98A1B2"/>
</svg>
