<svg width="24" height="24" viewBox="0 0 24 24" fill="none" xmlns="http://www.w3.org/2000/svg">
<path fill-rule="evenodd" clip-rule="evenodd" d="M12 24C18.6274 24 24 18.6274 24 12C24 5.37258 18.6274 0 12 0C5.37258 0 0 5.37258 0 12C0 18.6274 5.37258 24 12 24ZM8.36364 8C10.2618 8 11.8764 9.21455 12.4727 10.9091H20V13.8182H18.5455V16.7273H15.6364V13.8182H12.4727C11.8764 15.5127 10.2618 16.7273 8.36364 16.7273C5.95636 16.7273 4 14.7709 4 12.3636C4 9.95636 5.95636 8 8.36364 8ZM6.90909 12.3636C6.90909 13.1636 7.56364 13.8182 8.36364 13.8182C9.16364 13.8182 9.81818 13.1636 9.81818 12.3636C9.81818 11.5636 9.16364 10.9091 8.36364 10.9091C7.56364 10.9091 6.90909 11.5636 6.90909 12.3636Z" fill="#98A1B2"/>
</svg>
