<svg width="12" height="12" viewBox="0 0 12 12" fill="none" xmlns="http://www.w3.org/2000/svg">
<path fill-rule="evenodd" clip-rule="evenodd" d="M6 12C9.31371 12 12 9.31371 12 6C12 2.68629 9.31371 1.50023e-06 6 1.64508e-06C2.68629 1.78993e-06 -4.07115e-07 2.68629 -2.62268e-07 6C-1.17422e-07 9.31371 2.68629 12 6 12ZM2.99792 5.37701C2.99811 5.17009 3.16631 5.0022 3.37361 5.00201L3.62511 5.00178C3.83241 5.0016 4.0003 5.16918 4.00012 5.3761L3.99837 7.29031L7.29275 4.00192L5.37506 4.00366C5.16776 4.00385 4.99987 3.83626 5.00006 3.62934L5.00029 3.37832C5.00048 3.1714 5.16868 3.00351 5.37597 3.00332L8.63018 3.00037C8.83748 3.00018 9.00537 3.16777 9.00518 3.37468L9.00222 6.62298C9.00203 6.8299 8.83383 6.99779 8.62654 6.99798L8.37503 6.99821C8.16773 6.9984 7.99984 6.83081 8.00003 6.62389L8.00178 4.70759L4.7053 7.99807L6.62509 7.99633C6.83238 7.99614 7.00027 8.16373 7.00009 8.37065L6.99986 8.62167C6.99967 8.82859 6.83147 8.99648 6.62417 8.99667L3.36996 8.99962C3.16267 8.99981 2.99478 8.83222 2.99496 8.62531L2.99792 5.37701Z" fill="#98A1B2"/>
</svg>
