<svg width="24" height="15" viewBox="0 0 24 15" fill="none" xmlns="http://www.w3.org/2000/svg">
<path d="M4.9133 2.87401C8.82718 -0.958005 15.1728 -0.958005 19.0867 2.87401L19.5578 3.3352C19.7535 3.5268 19.7535 3.83745 19.5578 4.02905L17.9464 5.60669C17.8486 5.70249 17.6899 5.70249 17.5921 5.60669L16.9439 4.97204C14.2135 2.29873 9.78657 2.29873 7.05614 4.97204L6.36196 5.6517C6.26412 5.7475 6.10547 5.7475 6.00763 5.6517L4.39629 4.07406C4.20059 3.88246 4.20059 3.57181 4.39629 3.38021L4.9133 2.87401ZM22.4191 6.13673L23.8532 7.54084C24.0489 7.73244 24.0489 8.04308 23.8532 8.23469L17.3868 14.566C17.1911 14.7576 16.8738 14.7576 16.6781 14.566C16.6781 14.566 16.6781 14.566 16.6781 14.566L12.0886 10.0725C12.0397 10.0246 11.9604 10.0246 11.9115 10.0725C11.9115 10.0725 11.9115 10.0725 11.9115 10.0725L7.32207 14.566C7.12638 14.7576 6.80909 14.7576 6.6134 14.566C6.6134 14.566 6.61339 14.566 6.61339 14.566L0.146771 8.23461C-0.0489235 8.043 -0.0489235 7.73236 0.146771 7.54076L1.58087 6.13665C1.77656 5.94505 2.09385 5.94505 2.28954 6.13665L6.8791 10.6302C6.92802 10.6781 7.00734 10.6781 7.05626 10.6302C7.05626 10.6302 7.05626 10.6302 7.05627 10.6302L11.6456 6.13665C11.8413 5.94505 12.1586 5.94504 12.3543 6.13664C12.3543 6.13664 12.3543 6.13664 12.3543 6.13665L16.9438 10.6302C16.9927 10.6781 17.0721 10.6781 17.121 10.6302L21.7105 6.13673C21.9062 5.94513 22.2234 5.94513 22.4191 6.13673Z" fill="#98A1B2"/>
</svg>
