<svg width="24" height="24" viewBox="0 0 24 24" fill="none" xmlns="http://www.w3.org/2000/svg">
<path fill-rule="evenodd" clip-rule="evenodd" d="M15.9376 5.4375H12.9294C13.3638 4.41769 14.3068 2.8125 15.9376 2.8125C16.6615 2.8125 17.2501 3.40116 17.2501 4.125C17.2501 4.84884 16.6615 5.4375 15.9376 5.4375ZM8.0625 5.4375C7.33866 5.4375 6.75 4.84884 6.75 4.125C6.75 3.40116 7.33866 2.8125 8.0625 2.8125C9.68475 2.8125 10.6311 4.41769 11.0681 5.4375H8.0625ZM21.8438 5.4375H18.1976C18.4234 5.04966 18.5625 4.60538 18.5625 4.125C18.5625 2.67731 17.3852 1.5 15.9375 1.5C13.8834 1.5 12.6589 3.06581 12 4.33697C11.3418 3.06581 10.1166 1.5 8.0625 1.5C6.61481 1.5 5.4375 2.67731 5.4375 4.125C5.4375 4.60538 5.57663 5.04966 5.80238 5.4375H2.15625C1.794 5.4375 1.5 5.73084 1.5 6.09375V8.71875C1.5 9.08166 1.794 9.375 2.15625 9.375H21.8438C22.206 9.375 22.5 9.08166 22.5 8.71875V6.09375C22.5 5.73084 22.206 5.4375 21.8438 5.4375Z" fill="#98A1B2"/>
<path fill-rule="evenodd" clip-rule="evenodd" d="M10.6875 22.5H13.3125V10.6875H10.6875V22.5Z" fill="#98A1B2"/>
<path fill-rule="evenodd" clip-rule="evenodd" d="M20.5312 21.8438V11.3438C20.5312 10.9808 20.2372 10.6875 19.875 10.6875H14.625V22.5H19.875C20.2372 22.5 20.5312 22.2067 20.5312 21.8438Z" fill="#98A1B2"/>
<path fill-rule="evenodd" clip-rule="evenodd" d="M9.375 22.5V10.6875H4.125C3.76275 10.6875 3.46875 10.9808 3.46875 11.3438V21.8438C3.46875 22.2067 3.76275 22.5 4.125 22.5H9.375Z" fill="#98A1B2"/>
</svg>
