<svg width="24" height="24" viewBox="0 0 24 24" fill="none" xmlns="http://www.w3.org/2000/svg">
<path d="M20.75 4.5H7.625C7.02125 4.5 6.54875 4.80625 6.23375 5.27L1.5 12.375L6.23375 19.4713C6.54875 19.935 7.02125 20.25 7.625 20.25H20.75C21.7125 20.25 22.5 19.4625 22.5 18.5V6.25C22.5 5.2875 21.7125 4.5 20.75 4.5ZM18.125 15.5163L16.8913 16.75L13.75 13.6087L10.6087 16.75L9.375 15.5163L12.5163 12.375L9.375 9.23375L10.6087 8L13.75 11.1413L16.8913 8L18.125 9.23375L14.9837 12.375L18.125 15.5163Z" fill="#98A1B2"/>
</svg>
