<svg width="12" height="12" viewBox="0 0 12 12" fill="none" xmlns="http://www.w3.org/2000/svg">
<path fill-rule="evenodd" clip-rule="evenodd" d="M6 12C9.31371 12 12 9.31371 12 6C12 2.68629 9.31371 1.50023e-06 6 1.64508e-06C2.68629 1.78993e-06 -4.07115e-07 2.68629 -2.62268e-07 6C-1.17422e-07 9.31371 2.68629 12 6 12ZM2.68754 5.34509L3.01603 5.01659L5.54998 6.28559L5.54998 9.52515C5.46971 9.48505 5.3967 9.43182 5.33398 9.36765L2.68754 6.69509C2.59661 6.60775 2.52428 6.50293 2.47486 6.38694C2.42545 6.27095 2.39998 6.14617 2.39998 6.02009C2.39998 5.89401 2.42545 5.76923 2.47486 5.65324C2.52428 5.53725 2.59661 5.43244 2.68754 5.34509ZM8.98391 5.01659L9.31241 5.34509C9.40333 5.43244 9.47567 5.53725 9.52508 5.65324C9.5745 5.76923 9.59997 5.89401 9.59997 6.02009C9.59997 6.14617 9.5745 6.27095 9.52508 6.38694C9.47566 6.50293 9.40333 6.60775 9.31241 6.69509L6.66596 9.36765C6.60324 9.43182 6.53023 9.48505 6.44996 9.52515L6.44996 6.28559L8.98391 5.01659ZM6.69257 2.6856L8.34856 4.34609L6.00857 5.50709L3.68207 4.34609L5.34257 2.6856C5.43024 2.59524 5.53515 2.5234 5.6511 2.47434C5.76705 2.42529 5.89167 2.40001 6.01757 2.40001C6.14347 2.40001 6.26808 2.42529 6.38403 2.47434C6.49998 2.5234 6.6049 2.59524 6.69257 2.6856Z" fill="#98A1B2"/>
</svg>
