<svg width="24" height="24" viewBox="0 0 24 24" fill="none" xmlns="http://www.w3.org/2000/svg">
<path d="M21 8.39997C21 11.3823 18.5824 13.7999 15.6 13.7999C12.6177 13.7999 10.2001 11.3823 10.2001 8.39997C10.2001 5.41765 12.6177 3 15.6 3C18.5824 3 21 5.41765 21 8.39997Z" fill="#98A1B2"/>
<path d="M6.59998 18.2999C8.5882 18.2999 10.2 16.6881 10.2 14.6999C10.2 12.7117 8.5882 11.0999 6.59998 11.0999C4.61177 11.0999 3 12.7117 3 14.6999C3 16.6881 4.61177 18.2999 6.59998 18.2999Z" fill="#98A1B2"/>
<path d="M15.15 20.9999C16.3926 20.9999 17.4 19.9926 17.4 18.7499C17.4 17.5073 16.3926 16.4999 15.15 16.4999C13.9074 16.4999 12.9 17.5073 12.9 18.7499C12.9 19.9926 13.9074 20.9999 15.15 20.9999Z" fill="#98A1B2"/>
</svg>
