<svg width="12" height="12" viewBox="0 0 12 12" fill="none" xmlns="http://www.w3.org/2000/svg">
<path d="M4.25 3.68182C3.9362 3.68182 3.68182 3.9362 3.68182 4.25C3.68182 4.5638 3.9362 4.81818 4.25 4.81818C4.5638 4.81818 4.81818 4.5638 4.81818 4.25C4.81818 3.9362 4.5638 3.68182 4.25 3.68182Z" fill="#98A1B2"/>
<path d="M7.75 7.18182C7.4362 7.18182 7.18182 7.4362 7.18182 7.75C7.18182 8.0638 7.4362 8.31818 7.75 8.31818C8.0638 8.31818 8.31818 8.0638 8.31818 7.75C8.31818 7.4362 8.0638 7.18182 7.75 7.18182Z" fill="#98A1B2"/>
<path fill-rule="evenodd" clip-rule="evenodd" d="M6 12C9.31371 12 12 9.31371 12 6C12 2.68629 9.31371 0 6 0C2.68629 0 0 2.68629 0 6C0 9.31371 2.68629 12 6 12ZM3 4.25C3 3.55964 3.55964 3 4.25 3C4.94036 3 5.5 3.55964 5.5 4.25C5.5 4.94036 4.94036 5.5 4.25 5.5C3.55964 5.5 3 4.94036 3 4.25ZM6.5 7.75C6.5 7.05964 7.05964 6.5 7.75 6.5C8.44036 6.5 9 7.05964 9 7.75C9 8.44035 8.44036 9 7.75 9C7.05964 9 6.5 8.44035 6.5 7.75ZM9 3.6L3.6 9L3 8.4L8.4 3L9 3.6Z" fill="#98A1B2"/>
</svg>
