<svg width="24" height="24" viewBox="0 0 24 24" fill="none" xmlns="http://www.w3.org/2000/svg">
<path fill-rule="evenodd" clip-rule="evenodd" d="M0 3C0 1.89543 0.895431 1 2 1H22C23.1046 1 24 1.89543 24 3V17C24 18.1046 23.1046 19 22 19H6.82843C6.29799 19 5.78929 19.2107 5.41421 19.5858L1.70711 23.2929C1.07714 23.9229 0 23.4767 0 22.5858V19V3ZM4 6.5C4 5.67157 4.67157 5 5.5 5H18.5C19.3284 5 20 5.67157 20 6.5C20 7.32843 19.3284 8 18.5 8H5.5C4.67157 8 4 7.32843 4 6.5ZM5.5 11C4.67157 11 4 11.6716 4 12.5C4 13.3284 4.67157 14 5.5 14H12.5C13.3284 14 14 13.3284 14 12.5C14 11.6716 13.3284 11 12.5 11H5.5Z" fill="#98A1B2"/>
</svg>
