<svg width="24" height="24" viewBox="0 0 24 24" fill="none" xmlns="http://www.w3.org/2000/svg">
<path fill-rule="evenodd" clip-rule="evenodd" d="M6 7.5C6.82843 7.5 7.5 6.82843 7.5 6C7.5 5.17157 6.82843 4.5 6 4.5C5.17157 4.5 4.5 5.17157 4.5 6C4.5 6.82843 5.17157 7.5 6 7.5ZM6 10C8.20914 10 10 8.20914 10 6C10 3.79086 8.20914 2 6 2C3.79086 2 2 3.79086 2 6C2 8.20914 3.79086 10 6 10ZM21.6232 3.94454L20.3858 2.70711C19.9952 2.31658 19.3621 2.31658 18.9715 2.70711L2.70808 18.9706C2.31756 19.3611 2.31756 19.9943 2.70808 20.3848L3.94552 21.6222C4.33604 22.0127 4.96921 22.0127 5.35974 21.6222L21.6232 5.35876C22.0137 4.96823 22.0137 4.33507 21.6232 3.94454ZM19.5 18C19.5 18.8284 18.8284 19.5 18 19.5C17.1716 19.5 16.5 18.8284 16.5 18C16.5 17.1716 17.1716 16.5 18 16.5C18.8284 16.5 19.5 17.1716 19.5 18ZM22 18C22 20.2091 20.2091 22 18 22C15.7909 22 14 20.2091 14 18C14 15.7909 15.7909 14 18 14C20.2091 14 22 15.7909 22 18Z" fill="#98A1B2"/>
</svg>
