<svg width="22" height="22" viewBox="0 0 22 22" fill="none" xmlns="http://www.w3.org/2000/svg">
<path fill-rule="evenodd" clip-rule="evenodd" d="M14.9376 4.4375H11.9294C12.3638 3.41769 13.3068 1.8125 14.9376 1.8125C15.6615 1.8125 16.2501 2.40116 16.2501 3.125C16.2501 3.84884 15.6615 4.4375 14.9376 4.4375ZM7.0625 4.4375C6.33866 4.4375 5.75 3.84884 5.75 3.125C5.75 2.40116 6.33866 1.8125 7.0625 1.8125C8.68475 1.8125 9.63106 3.41769 10.0681 4.4375H7.0625ZM20.8438 4.4375H17.1976C17.4234 4.04966 17.5625 3.60538 17.5625 3.125C17.5625 1.67731 16.3852 0.5 14.9375 0.5C12.8834 0.5 11.6589 2.06581 11 3.33697C10.3418 2.06581 9.11656 0.5 7.0625 0.5C5.61481 0.5 4.4375 1.67731 4.4375 3.125C4.4375 3.60538 4.57663 4.04966 4.80238 4.4375H1.15625C0.794 4.4375 0.5 4.73084 0.5 5.09375V7.71875C0.5 8.08166 0.794 8.375 1.15625 8.375H20.8438C21.206 8.375 21.5 8.08166 21.5 7.71875V5.09375C21.5 4.73084 21.206 4.4375 20.8438 4.4375Z" fill="#98A1B2"/>
<path fill-rule="evenodd" clip-rule="evenodd" d="M9.6875 21.5H12.3125V9.6875H9.6875V21.5Z" fill="#98A1B2"/>
<path fill-rule="evenodd" clip-rule="evenodd" d="M19.5312 20.8438V10.3438C19.5312 9.98084 19.2372 9.6875 18.875 9.6875H13.625V21.5H18.875C19.2372 21.5 19.5312 21.2067 19.5312 20.8438Z" fill="#98A1B2"/>
<path fill-rule="evenodd" clip-rule="evenodd" d="M8.375 21.5V9.6875H3.125C2.76275 9.6875 2.46875 9.98084 2.46875 10.3438V20.8438C2.46875 21.2067 2.76275 21.5 3.125 21.5H8.375Z" fill="#98A1B2"/>
</svg>
