<svg width="24" height="24" viewBox="0 0 24 24" fill="none" xmlns="http://www.w3.org/2000/svg">
<path d="M18.8755 7.5H13.4661L15.463 1.41563C15.6505 0.703125 15.1114 0 14.3755 0H7.6255C7.063 0 6.58487 0.417188 6.50987 0.975L6.27047 2.7705L17.2211 13.7211L19.8458 9.1875C20.2817 8.44219 19.7427 7.5 18.8755 7.5Z" fill="#98A1B2"/>
<path d="M21.5 20L20 21.5L15.3877 16.8878L11.5958 23.4375C11.3896 23.7938 11.0146 24 10.6208 24C9.90362 24 9.35987 23.3297 9.52862 22.6172L11.6896 13.5H6.1255C5.44581 13.5 4.92081 12.9 5.00987 12.225L5.68224 7.18225L2 3.5L3.5 2L21.5 20Z" fill="#98A1B2"/>
</svg>
