<svg width="24" height="24" viewBox="0 0 24 24" fill="none" xmlns="http://www.w3.org/2000/svg">
<path d="M12.0055 5.99563C15.0177 5.99563 17.4625 8.44037 17.4625 11.4527C17.4625 12.1621 17.3206 12.8278 17.0696 13.4499L20.2565 16.6368C21.9045 15.2617 23.2033 13.4827 24 11.4527C22.1119 6.66138 17.4516 3.26711 11.9945 3.26711C10.4666 3.26711 9.00409 3.53996 7.65075 4.0311L10.0082 6.38853C10.6303 6.13751 11.296 5.99563 12.0055 5.99563ZM1.09141 3.01609L3.57981 5.50449L4.08185 6.00654C2.27012 7.41445 0.851296 9.29167 0 11.4527C1.88813 16.2439 6.54843 19.6382 12.0055 19.6382C13.6971 19.6382 15.3124 19.3108 16.7858 18.7214L17.2442 19.1798L20.442 22.3667L21.8281 20.9806L2.47749 1.63L1.09141 3.01609ZM7.12688 9.05156L8.81855 10.7432C8.76398 10.9724 8.73124 11.2125 8.73124 11.4527C8.73124 13.2644 10.1937 14.7269 12.0055 14.7269C12.2456 14.7269 12.4857 14.6941 12.7149 14.6396L14.4065 16.3312C13.6753 16.6914 12.8677 16.9097 12.0055 16.9097C8.99318 16.9097 6.54843 14.4649 6.54843 11.4527C6.54843 10.5904 6.76671 9.7828 7.12688 9.05156ZM11.8308 8.20026L15.2688 11.6382L15.2906 11.4636C15.2906 9.65183 13.8281 8.18935 12.0164 8.18935L11.8308 8.20026Z" fill="#98A1B2"/>
</svg>
