<svg width="15" height="19" viewBox="0 0 15 19" fill="none" xmlns="http://www.w3.org/2000/svg">
<path d="M6.78794 0C6.23565 0 5.78794 0.447715 5.78794 1V13.5461L2.18092 9.93907C1.7904 9.54855 1.15723 9.54855 0.766709 9.93907L0.292893 10.4129C-0.0976305 10.8034 -0.0976315 11.4366 0.292892 11.8271L6.42351 17.9577C6.81403 18.3482 7.4472 18.3482 7.83772 17.9577L13.9683 11.8271C14.3589 11.4366 14.3589 10.8034 13.9683 10.4129L13.4946 9.93913C13.1041 9.5486 12.4709 9.5486 12.0804 9.93913L8.45794 13.5616V1C8.45794 0.447715 8.01022 0 7.45794 0H6.78794Z" fill="#0C6CF2"/>
</svg>
