<svg width="24" height="24" viewBox="0 0 24 24" fill="none" xmlns="http://www.w3.org/2000/svg">
<path d="M12 24C18.6274 24 24 18.6274 24 12C24 5.37258 18.6274 0 12 0C5.37258 0 0 5.37258 0 12C0 18.6274 5.37258 24 12 24Z" fill="#C2A633"/>
<path fill-rule="evenodd" clip-rule="evenodd" d="M6.97508 19.4901H11.869C11.869 19.4901 18.75 20.082 18.75 12.1206C18.75 4.46794 12.4663 4.49508 11.2519 4.50032C11.2235 4.50045 11.1978 4.50056 11.1751 4.50056H6.97495V11.1777H5.25V12.8133H6.97508V19.4901ZM11.6622 7.2712H9.73149V11.1776H12.7691V12.8132H9.73149V16.7193H11.7568C11.763 16.7193 11.7697 16.7193 11.7768 16.7193C12.366 16.7201 16.0291 16.7248 16.0233 12.1746C16.0175 7.56949 12.3844 7.2712 11.6622 7.2712Z" fill="white"/>
</svg>
