<svg width="40" height="40" viewBox="0 0 40 40" fill="none" xmlns="http://www.w3.org/2000/svg">
<circle cx="20" cy="20" r="20" fill="#ECF5FE"/>
<path d="M12.9133 15.5193C16.8272 11.6873 23.1728 11.6873 27.0867 15.5193L27.5578 15.9805C27.7535 16.1721 27.7535 16.4827 27.5578 16.6743L25.9464 18.252C25.8486 18.3478 25.6899 18.3478 25.5921 18.252L24.9439 17.6173C22.2135 14.944 17.7866 14.944 15.0561 17.6173L14.362 18.297C14.2641 18.3928 14.1055 18.3928 14.0076 18.297L12.3963 16.7193C12.2006 16.5277 12.2006 16.2171 12.3963 16.0255L12.9133 15.5193ZM30.4191 18.782L31.8532 20.1861C32.0489 20.3777 32.0489 20.6884 31.8532 20.88L25.3868 27.2112C25.1911 27.4028 24.8738 27.4028 24.6781 27.2112C24.6781 27.2112 24.6781 27.2112 24.6781 27.2112L20.0886 22.7177C20.0397 22.6698 19.9604 22.6698 19.9115 22.7177C19.9115 22.7177 19.9115 22.7177 19.9115 22.7177L15.3221 27.2112C15.1264 27.4028 14.8091 27.4028 14.6134 27.2112C14.6134 27.2112 14.6134 27.2112 14.6134 27.2112L8.14677 20.8799C7.95108 20.6883 7.95108 20.3776 8.14677 20.186L9.58087 18.7819C9.77656 18.5903 10.0938 18.5903 10.2895 18.7819L14.8791 23.2755C14.928 23.3234 15.0073 23.3234 15.0563 23.2755C15.0563 23.2755 15.0563 23.2755 15.0563 23.2755L19.6456 18.7819C19.8413 18.5903 20.1586 18.5903 20.3543 18.7819C20.3543 18.7819 20.3543 18.7819 20.3543 18.7819L24.9438 23.2755C24.9927 23.3234 25.0721 23.3234 25.121 23.2755L29.7105 18.782C29.9062 18.5904 30.2234 18.5904 30.4191 18.782Z" fill="#3B99FC"/>
</svg>
