<svg width="24" height="24" viewBox="0 0 24 24" fill="none" xmlns="http://www.w3.org/2000/svg">
<path d="M20.4728 3.525C18.2964 1.35 15.3096 0 11.9925 0C5.35835 0 0 5.37 0 12C0 18.63 5.35835 24 11.9925 24C17.3647 24 21.8801 20.4779 23.4166 15.6206C23.5152 15.309 23.2762 15 22.9493 15H21.1808C20.7566 15 20.3835 15.2702 20.2113 15.6579C18.8135 18.8051 15.6595 21 11.9925 21C7.02439 21 2.98687 16.965 2.98687 12C2.98687 7.035 7.02439 3 11.9925 3C14.4841 3 16.7054 4.035 18.3265 5.67L15.2018 8.79267C14.5716 9.42255 15.0177 10.5 15.9087 10.5H23.25C23.6642 10.5 24 10.1642 24 9.75V2.41315C24 1.52239 22.9232 1.07616 22.2931 1.70582L20.4728 3.525Z" fill="#98A1B2"/>
</svg>
