<svg width="24" height="24" viewBox="0 0 24 24" fill="none" xmlns="http://www.w3.org/2000/svg">
<path fill-rule="evenodd" clip-rule="evenodd" d="M12 2C6.47715 2 2 6.47715 2 12C2 12.7463 2.60502 13.3514 3.35135 13.3514C4.09768 13.3514 4.7027 12.7463 4.7027 12C4.7027 7.96981 7.96981 4.7027 12 4.7027C13.5758 4.7027 15.0338 5.20119 16.2267 6.05047L14.8327 7.41429C14.5121 7.72799 14.691 8.27318 15.1352 8.33589L20.3229 9.06835C20.6741 9.11794 20.9771 8.82149 20.9352 8.46925L20.3162 3.26681C20.2632 2.82138 19.7221 2.6306 19.4014 2.9443L18.1809 4.13851C16.4803 2.79996 14.3328 2 12 2ZM20.6486 10.6486C19.9023 10.6486 19.2973 11.2537 19.2973 12C19.2973 16.0302 16.0302 19.2973 12 19.2973C10.415 19.2973 8.94969 18.7931 7.75314 17.9351L9.09705 16.6202C9.41768 16.3065 9.23875 15.7613 8.7946 15.6986L3.60691 14.9661C3.25567 14.9165 2.95268 15.213 2.99459 15.5652L3.61358 20.7677C3.66658 21.2131 4.20774 21.4039 4.52836 21.0902L5.79977 19.8462C7.50345 21.194 9.65861 22 12 22C17.5228 22 22 17.5228 22 12C22 11.2537 21.395 10.6486 20.6486 10.6486Z" fill="#98A1B2"/>
</svg>
