<svg width="24" height="24" viewBox="0 0 24 24" fill="none" xmlns="http://www.w3.org/2000/svg">
<path d="M12 24C18.6274 24 24 18.6274 24 12C24 5.37258 18.6274 0 12 0C5.37258 0 0 5.37258 0 12C0 18.6274 5.37258 24 12 24Z" fill="black"/>
<path d="M7.33142 17.25L9.07301 14.2447L10.8146 11.25L12.5456 8.24471L12.8323 7.76852L12.9597 8.24471L13.4907 10.2235L12.896 11.25L11.1544 14.2447L9.42345 17.25H11.5049L13.2465 14.2447L14.1491 12.6892L14.5739 14.2447L15.381 17.25H17.25L16.4429 14.2447L15.6358 11.25L15.4235 10.4775L16.719 8.24471H14.8288L14.765 8.02249L14.1066 5.56746L14.0217 5.25H12.2058L12.1633 5.31349L10.4642 8.24471L8.72257 11.25L6.99159 14.2447L5.25 17.25H7.33142Z" fill="white"/>
</svg>
