<svg width="24" height="24" viewBox="0 0 24 24" fill="none" xmlns="http://www.w3.org/2000/svg">
<path d="M19.8075 13.0237C19.8469 12.6956 19.8731 12.3544 19.8731 12C19.8731 11.6456 19.8469 11.3044 19.7944 10.9763L22.0125 9.24375C22.2094 9.08625 22.2619 8.7975 22.1438 8.57437L20.0438 4.93875C19.9125 4.7025 19.6369 4.62375 19.4006 4.7025L16.7888 5.7525C16.2375 5.3325 15.66 4.99125 15.0169 4.72875L14.6231 1.94625C14.5838 1.68375 14.3606 1.5 14.0981 1.5H9.89813C9.63563 1.5 9.42563 1.68375 9.38626 1.94625L8.99251 4.72875C8.34938 4.99125 7.75876 5.34562 7.22063 5.7525L4.60876 4.7025C4.37251 4.61063 4.09688 4.7025 3.96563 4.93875L1.86563 8.57437C1.73438 8.81062 1.78688 9.08625 1.99688 9.24375L4.21501 10.9763C4.16251 11.3044 4.12313 11.6587 4.12313 12C4.12313 12.3413 4.14938 12.6956 4.20188 13.0237L1.98376 14.7563C1.78688 14.9138 1.73438 15.2025 1.85251 15.4256L3.95251 19.0613C4.08376 19.2975 4.35938 19.3763 4.59563 19.2975L7.20751 18.2475C7.75876 18.6675 8.33626 19.0087 8.97938 19.2712L9.37313 22.0537C9.42563 22.3162 9.63563 22.5 9.89813 22.5H14.0981C14.3606 22.5 14.5838 22.3162 14.61 22.0537L15.0038 19.2712C15.6469 19.0087 16.2375 18.6544 16.7756 18.2475L19.3875 19.2975C19.6238 19.3894 19.8994 19.2975 20.0306 19.0613L22.1306 15.4256C22.2619 15.1894 22.2094 14.9138 21.9994 14.7563L19.8075 13.0237ZM11.9981 15.9375C9.83251 15.9375 8.06063 14.1656 8.06063 12C8.06063 9.83438 9.83251 8.0625 11.9981 8.0625C14.1638 8.0625 15.9356 9.83438 15.9356 12C15.9356 14.1656 14.1638 15.9375 11.9981 15.9375Z" fill="#98A1B2"/>
</svg>
