<svg width="12" height="12" viewBox="0 0 12 12" fill="none" xmlns="http://www.w3.org/2000/svg">
<path fill-rule="evenodd" clip-rule="evenodd" d="M6 12C9.31371 12 12 9.31371 12 6C12 2.68629 9.31371 0 6 0C2.68629 0 0 2.68629 0 6C0 9.31371 2.68629 12 6 12ZM4.18182 4C5.13091 4 5.93818 4.60727 6.23636 5.45455H10V6.90909H9.27273V8.36364H7.81818V6.90909H6.23636C5.93818 7.75636 5.13091 8.36364 4.18182 8.36364C2.97818 8.36364 2 7.38545 2 6.18182C2 4.97818 2.97818 4 4.18182 4ZM3.45455 6.18182C3.45455 6.58182 3.78182 6.90909 4.18182 6.90909C4.58182 6.90909 4.90909 6.58182 4.90909 6.18182C4.90909 5.78182 4.58182 5.45455 4.18182 5.45455C3.78182 5.45455 3.45455 5.78182 3.45455 6.18182Z" fill="#98A1B2"/>
</svg>
