<svg width="24" height="24" viewBox="0 0 24 24" fill="none" xmlns="http://www.w3.org/2000/svg">
<path fill-rule="evenodd" clip-rule="evenodd" d="M3.76136 2.13636C3.76136 1.78491 4.04627 1.5 4.39773 1.5H10.7614C11.1128 1.5 11.3977 1.78491 11.3977 2.13636V6.59091H11.1591C11.862 6.59091 12.4318 7.16073 12.4318 7.86364V10.4091H20.7045C21.056 10.4091 21.3409 10.694 21.3409 11.0455V19.9545C21.3409 20.306 21.056 20.5909 20.7045 20.5909H12.4318V21.2273C12.4318 21.9302 11.862 22.5 11.1591 22.5H3.52273C2.81982 22.5 2.25 21.9302 2.25 21.2273V7.86364C2.25 7.16073 2.81982 6.59091 3.52273 6.59091H3.76136V2.13636ZM10.0428 19H19.7498V12H10.0428C8.14889 12.0366 6.62481 13.5899 6.62481 15.5C6.62481 17.4101 8.14889 18.9634 10.0428 19ZM10.336 17.9706C11.6951 17.9706 12.7969 16.8645 12.7969 15.5C12.7969 14.1355 11.6951 13.0294 10.336 13.0294C8.97686 13.0294 7.87505 14.1355 7.87505 15.5C7.87505 16.8645 8.97686 17.9706 10.336 17.9706ZM5.03413 2.77262H10.125V6.59081H5.03413V2.77262ZM5.67049 4.04535C5.67049 3.6939 5.9554 3.40899 6.30685 3.40899C6.65831 3.40899 6.94322 3.6939 6.94322 4.04535V5.31808C6.94322 5.66953 6.65831 5.95444 6.30685 5.95444C5.9554 5.95444 5.67049 5.66953 5.67049 5.31808V4.04535ZM8.21594 4.04535C8.21594 3.6939 8.50085 3.40899 8.85231 3.40899C9.20376 3.40899 9.48867 3.6939 9.48867 4.04535V5.31808C9.48867 5.66953 9.20376 5.95444 8.85231 5.95444C8.50085 5.95444 8.21594 5.66953 8.21594 5.31808V4.04535Z" fill="#98A1B2"/>
</svg>
