<svg width="24" height="24" viewBox="0 0 24 24" fill="none" xmlns="http://www.w3.org/2000/svg">
<path d="M10.25 24H13.75V20.5714H10.25V24Z" fill="#98A1B2"/>
<path d="M15.7975 12.2914L17.3725 10.7143C18.37 9.73714 19 8.36571 19 6.85714C19 3.06857 15.8675 0 12 0C8.1325 0 5 3.06857 5 6.85714H8.5C8.5 4.97143 10.075 3.42857 12 3.42857C13.925 3.42857 15.5 4.97143 15.5 6.85714C15.5 7.8 15.115 8.65714 14.4675 9.27429L12.2975 11.4343C11.0375 12.6857 10.25 14.4 10.25 16.2857V17.1429H13.75C13.75 14.5714 14.5375 13.5429 15.7975 12.2914Z" fill="#98A1B2"/>
</svg>
