<svg width="15" height="19" viewBox="0 0 15 19" fill="none" xmlns="http://www.w3.org/2000/svg">
<path d="M13.9683 6.42351C14.3589 6.81403 14.3589 7.4472 13.9683 7.83772L13.4945 8.31154C13.104 8.70206 12.4708 8.70206 12.0803 8.31154L8.4733 4.70453L8.4733 17.2506C8.4733 17.8029 8.02558 18.2506 7.4733 18.2506H6.8033C6.25101 18.2506 5.8033 17.8029 5.8033 17.2506L5.8033 4.68906L2.18087 8.31149C1.79034 8.70201 1.15718 8.70201 0.766654 8.31148L0.292893 7.83772C-0.097631 7.4472 -0.097631 6.81403 0.292893 6.42351L6.42351 0.292894C6.81403 -0.0976311 7.4472 -0.0976311 7.83772 0.292893L13.9683 6.42351Z" fill="#0C6CF2"/>
</svg>
