<svg width="24" height="24" viewBox="0 0 24 24" fill="none" xmlns="http://www.w3.org/2000/svg">
<path fill-rule="evenodd" clip-rule="evenodd" d="M12.8999 3.6C12.8999 3.2682 12.6311 3 12.2999 3H4.59838L9.02636 5.65679C9.56516 5.97959 9.89996 6.57119 9.89996 7.19999V17.4H12.2999C12.6311 17.4 12.8999 17.1318 12.8999 16.8V3.6ZM8.40898 6.68585L2.409 3.08586C2.2236 2.97486 1.992 2.97066 1.8042 3.07806C1.6164 3.18486 1.5 3.38406 1.5 3.60006V16.8C1.5 17.0112 1.6104 17.2062 1.791 17.3142L7.79098 20.9142C7.88638 20.9712 7.99318 21 8.09998 21C8.20198 21 8.30398 20.9742 8.39578 20.922C8.58358 20.8152 8.69998 20.616 8.69998 20.4V7.20005C8.69998 6.98885 8.58958 6.79385 8.40898 6.68585ZM14.1 9.68739V11.5628C14.1 11.8745 14.3508 12.1254 14.6626 12.1254H18.6009V14.1836C18.6009 14.6008 19.1049 14.8095 19.4002 14.5141L22.9681 10.9439C23.1439 10.7681 23.1439 10.4797 22.9681 10.3039L19.4002 6.73837C19.1049 6.443 18.6009 6.65164 18.6009 7.06891V9.12478L14.6626 9.12478C14.3508 9.12478 14.1 9.37561 14.1 9.68739Z" fill="#98A1B2"/>
</svg>
