<svg width="40" height="40" viewBox="0 0 40 40" fill="none" xmlns="http://www.w3.org/2000/svg">
<circle cx="20" cy="20" r="20" fill="#ECF5FE"/>
<g clip-path="url(#clip0_786_12848)">
<path fill-rule="evenodd" clip-rule="evenodd" d="M16.8087 9.97534C16.2063 10.0674 15.6897 10.4545 15.4321 11.0069L9.6814 23.3393C9.25594 24.2517 9.65069 25.3363 10.5631 25.7617L22.1276 31.1543C23.04 31.5798 24.1246 31.1851 24.55 30.2726L30.3007 17.9403C30.5583 17.3879 30.5228 16.7433 30.206 16.2226L26.2213 9.67147C25.8389 9.04275 25.116 8.70563 24.3885 8.81682L16.8087 9.97534ZM22.8935 14.4154C23.8059 14.8409 24.8905 14.4462 25.3159 13.5338C25.7414 12.6213 25.3467 11.5368 24.4343 11.1113C23.5218 10.6858 22.4373 11.0806 22.0118 11.993C21.5863 12.9054 21.9811 13.99 22.8935 14.4154ZM17.6078 14.9676C17.1516 14.7549 16.6093 14.9523 16.3966 15.4085C16.1838 15.8647 16.3812 16.407 16.8374 16.6197L25.0977 20.4716C25.554 20.6843 26.0962 20.4869 26.309 20.0307C26.5217 19.5745 26.3243 19.0322 25.8681 18.8195L17.6078 14.9676ZM16.067 18.2718C15.6108 18.059 15.0685 18.2564 14.8558 18.7126C14.6431 19.1688 14.8405 19.7111 15.2967 19.9238L19.4268 21.8498C19.883 22.0625 20.4253 21.8651 20.6381 21.4089C20.8508 20.9527 20.6534 20.4104 20.1972 20.1977L16.067 18.2718ZM13.3151 22.0167C13.5278 21.5605 14.0701 21.3632 14.5263 21.5759L20.3085 24.2722C20.7647 24.4849 20.9621 25.0272 20.7494 25.4834C20.5366 25.9396 19.9944 26.137 19.5382 25.9243L13.7559 23.228C13.2997 23.0152 13.1023 22.473 13.3151 22.0167Z" fill="#619FF7"/>
</g>
<defs>
<clipPath id="clip0_786_12848">
<rect width="24" height="24" fill="white" transform="translate(8 8)"/>
</clipPath>
</defs>
</svg>
