<svg width="24" height="24" viewBox="0 0 24 24" fill="none" xmlns="http://www.w3.org/2000/svg">
<path fill-rule="evenodd" clip-rule="evenodd" d="M7.87059 6.99706C7.75295 6.99706 7.65295 6.95588 7.57059 6.87353C7.48824 6.79118 7.44707 6.69118 7.44707 6.57353V5.44412C7.44707 5.32647 7.48824 5.22647 7.57059 5.14412C7.65295 5.06177 7.75295 5.02059 7.87059 5.02059H20.5765C20.6941 5.02059 20.7941 5.06177 20.8765 5.14412C20.9588 5.22647 21 5.32647 21 5.44412V6.57353C21 6.69118 20.9588 6.79118 20.8765 6.87353C20.7941 6.95588 20.6941 6.99706 20.5765 6.99706H7.87059ZM21 12.2206C21 12.3382 20.9588 12.4382 20.8765 12.5206C20.7941 12.6029 20.6941 12.6441 20.5765 12.6441H7.87059C7.75295 12.6441 7.65295 12.6029 7.57059 12.5206C7.48824 12.4382 7.44707 12.3382 7.44707 12.2206V11.0912C7.44707 10.9735 7.48824 10.8735 7.57059 10.7912C7.65295 10.7088 7.75295 10.6677 7.87059 10.6677H20.5765C20.6941 10.6677 20.7941 10.7088 20.8765 10.7912C20.9588 10.8735 21 10.9735 21 11.0912V12.2206ZM21 17.8677C21 17.9853 20.9588 18.0853 20.8765 18.1677C20.7941 18.25 20.6941 18.2912 20.5765 18.2912H7.87059C7.75295 18.2912 7.65295 18.25 7.57059 18.1677C7.48824 18.0853 7.44707 17.9853 7.44707 17.8677V16.7382C7.44707 16.6206 7.48824 16.5206 7.57059 16.4382C7.65295 16.3559 7.75295 16.3147 7.87059 16.3147H20.5765C20.6941 16.3147 20.7941 16.3559 20.8765 16.4382C20.9588 16.5206 21 16.6206 21 16.7382V17.8677ZM3.03527 7.84412V7.56176C3.03527 7.27941 3.17645 7.13824 3.4588 7.13824H3.98821V5.72647L4.02351 5.37353L3.88233 5.47941C3.81174 5.57353 3.72351 5.61471 3.61763 5.60294C3.51174 5.59118 3.42351 5.53824 3.35292 5.44412L3.14115 5.23235C2.95292 5.04412 2.96468 4.85588 3.17645 4.66765L3.91763 3.96176C4.08233 3.82059 4.2588 3.75 4.44704 3.75H4.87057C5.15292 3.75 5.2941 3.89118 5.2941 4.17353V7.13824H5.82351C6.10586 7.13824 6.24704 7.27941 6.24704 7.56176V7.84412C6.24704 8.12647 6.10586 8.26765 5.82351 8.26765H3.4588C3.17645 8.26765 3.03527 8.12647 3.03527 7.84412ZM3 13.5265V13.3853C3 12.8912 3.15294 12.4676 3.45882 12.1147C3.64706 11.9029 3.92941 11.6676 4.30588 11.4088C4.49412 11.2912 4.62353 11.1971 4.69412 11.1265C4.76471 11.0559 4.8 10.9853 4.8 10.9147C4.8 10.7265 4.69412 10.6324 4.48235 10.6324C4.36471 10.6324 4.24706 10.6794 4.12941 10.7735C3.94118 10.9618 3.75294 10.9853 3.56471 10.8441L3.28235 10.5971C3.07059 10.4324 3.03529 10.2559 3.17647 10.0676C3.50588 9.62059 3.97647 9.39706 4.58824 9.39706C5.01177 9.39706 5.36471 9.50294 5.64706 9.71471C6 9.97353 6.17647 10.3382 6.17647 10.8088C6.17647 11.1853 6.03529 11.5265 5.75294 11.8324C5.58824 11.9971 5.31765 12.1971 4.94118 12.4324C4.63529 12.5971 4.47059 12.7147 4.44706 12.7853H5.82353C6.10588 12.7853 6.24706 12.9265 6.24706 13.2088V13.5265C6.24706 13.7853 6.10588 13.9147 5.82353 13.9147H3.42353C3.30588 13.9147 3.20588 13.8794 3.12353 13.8088C3.04118 13.7382 3 13.6441 3 13.5265ZM3.21178 19.2441C3.02354 19.0794 3.00001 18.8912 3.14119 18.6794L3.31766 18.3265C3.45884 18.1147 3.64707 18.0794 3.88237 18.2206C4.04707 18.2912 4.21178 18.3265 4.37648 18.3265C4.72943 18.3265 4.9059 18.2265 4.9059 18.0265C4.9059 17.8265 4.71766 17.7265 4.34119 17.7265H4.16472C3.97648 17.7265 3.83531 17.6323 3.74119 17.4441L3.7059 17.3735C3.61178 17.2088 3.63531 17.0323 3.77648 16.8441L4.41178 16.1029L3.98825 16.1735H3.52943C3.24707 16.1735 3.1059 16.0323 3.1059 15.75V15.4323C3.1059 15.1735 3.24707 15.0441 3.52943 15.0441H5.57648C5.85884 15.0441 6.00001 15.1735 6.00001 15.4323V15.5735C6.00001 15.7618 5.92943 15.9265 5.78825 16.0676L5.18825 16.7735C5.51766 16.8676 5.7706 17.0265 5.94707 17.25C6.12354 17.4735 6.21178 17.7265 6.21178 18.0088C6.21178 18.4323 6.0706 18.7853 5.78825 19.0676C5.48237 19.3971 5.04707 19.5618 4.48237 19.5618C4.01178 19.5618 3.58825 19.4559 3.21178 19.2441Z" fill="#98A1B2"/>
</svg>
