<svg width="24" height="24" viewBox="0 0 24 24" fill="none" xmlns="http://www.w3.org/2000/svg">
<path d="M12 3.81995C6.54545 3.81995 1.88727 7.21267 0 12.0018C1.88727 16.7909 6.54545 20.1836 12 20.1836C17.4545 20.1836 22.1127 16.7909 24 12.0018C22.1127 7.21267 17.4545 3.81995 12 3.81995ZM12 17.4563C8.98909 17.4563 6.54545 15.0127 6.54545 12.0018C6.54545 8.99086 8.98909 6.54722 12 6.54722C15.0109 6.54722 17.4545 8.99086 17.4545 12.0018C17.4545 15.0127 15.0109 17.4563 12 17.4563ZM12 8.72904C10.1891 8.72904 8.72727 10.1909 8.72727 12.0018C8.72727 13.8127 10.1891 15.2745 12 15.2745C13.8109 15.2745 15.2727 13.8127 15.2727 12.0018C15.2727 10.1909 13.8109 8.72904 12 8.72904Z" fill="#98A1B2"/>
</svg>
