<svg width="24" height="24" viewBox="0 0 24 24" fill="none" xmlns="http://www.w3.org/2000/svg">
<path fill-rule="evenodd" clip-rule="evenodd" d="M3.66667 2C2.74619 2 2 2.74619 2 3.66667V20.3333C2 21.2538 2.74619 22 3.66667 22H20.3333C21.2538 22 22 21.2538 22 20.3333V3.66667C22 2.74619 21.2538 2 20.3333 2H3.66667ZM19.0877 4.61146C18.6934 4.38201 18.1893 4.51818 17.9616 4.91558L11.8822 15.5293C11.8253 15.6286 11.6992 15.6627 11.6006 15.6053L8.20965 13.632C7.81537 13.4025 7.31122 13.5387 7.08358 13.9361L4.61058 18.2535C4.38294 18.6509 4.51803 19.1591 4.91231 19.3885C5.30658 19.618 5.81073 19.4818 6.03837 19.0844L7.99616 15.6664C8.05307 15.5671 8.17911 15.533 8.27768 15.5904L11.6687 17.5638C12.063 17.7932 12.5671 17.6571 12.7947 17.2597L19.3894 5.74648C19.6171 5.34907 19.482 4.8409 19.0877 4.61146Z" fill="#98A1B2"/>
</svg>
