<svg width="24" height="24" viewBox="0 0 24 24" fill="none" xmlns="http://www.w3.org/2000/svg">
<path d="M12 2C6.47998 2 1.99998 6.48 1.99998 12C1.99998 17.52 6.47998 22 12 22C17.52 22 22 17.52 22 12C22 6.48 17.52 2 12 2ZM13.41 18.09V20H10.74V18.07C9.02998 17.71 7.57998 16.61 7.46998 14.67H9.42999C9.52998 15.72 10.25 16.54 12.08 16.54C14.04 16.54 14.48 15.56 14.48 14.95C14.48 14.12 14.04 13.34 11.81 12.81C9.32999 12.21 7.62998 11.19 7.62998 9.14C7.62998 7.42 9.01998 6.3 10.74 5.93V4H13.41V5.95C15.27 6.4 16.2 7.81 16.26 9.34H14.3C14.25 8.23 13.66 7.47 12.08 7.47C10.58 7.47 9.67999 8.15 9.67999 9.11C9.67999 9.95 10.33 10.5 12.35 11.02C14.37 11.54 16.53 12.41 16.53 14.93C16.52 16.76 15.15 17.76 13.41 18.09Z" fill="#98A1B2"/>
</svg>
