<svg width="20" height="20" viewBox="0 0 20 20" fill="none" xmlns="http://www.w3.org/2000/svg">
<path d="M10 0.75C4.89137 0.75 0.75 4.89137 0.75 10C0.75 10.6904 1.30964 11.25 2 11.25C2.69036 11.25 3.25 10.6904 3.25 10C3.25 6.27208 6.27208 3.25 10 3.25C11.4576 3.25 12.8062 3.7111 13.9097 4.49669L12.6203 5.75822C12.3237 6.04839 12.4892 6.55269 12.9001 6.6107L17.6987 7.28822C18.0236 7.33409 18.3038 7.05988 18.2651 6.73406L17.6925 1.9218C17.6435 1.50978 17.1429 1.33331 16.8463 1.62348L15.7173 2.72812C14.1443 1.48996 12.1579 0.75 10 0.75Z" fill="#0C6CF2"/>
<path d="M18 8.75C17.3096 8.75 16.75 9.30964 16.75 10C16.75 13.7279 13.7279 16.75 10 16.75C8.53389 16.75 7.17846 16.2837 6.07165 15.4899L7.31477 14.2737C7.61135 13.9835 7.44585 13.4792 7.035 13.4212L2.23639 12.7437C1.9115 12.6978 1.63123 12.972 1.66999 13.2978L2.24257 18.1101C2.29159 18.5221 2.79216 18.6986 3.08874 18.4084L4.26479 17.2578C5.84069 18.5044 7.83421 19.25 10 19.25C15.1086 19.25 19.25 15.1086 19.25 10C19.25 9.30964 18.6904 8.75 18 8.75Z" fill="#0C6CF2"/>
</svg>
