<svg width="24" height="24" viewBox="0 0 24 24" fill="none" xmlns="http://www.w3.org/2000/svg">
<g clip-path="url(#clip0)">
<path d="M12 23.25C18.2132 23.25 23.25 18.2132 23.25 12C23.25 5.7868 18.2132 0.75 12 0.75C5.7868 0.75 0.75 5.7868 0.75 12C0.75 18.2132 5.7868 23.25 12 23.25Z" fill="white"/>
<path d="M12 23.75C18.4893 23.75 23.75 18.4893 23.75 12C23.75 5.51065 18.4893 0.25 12 0.25C5.51065 0.25 0.25 5.51065 0.25 12C0.25 18.4893 5.51065 23.75 12 23.75Z" stroke="#05183D" stroke-opacity="0.1"/>
<path d="M12.0951 4.82426L17.1382 7.11243C17.3605 7.21329 17.3767 7.50873 17.1668 7.63121L14.1076 11.2811L17.1382 12.6562C17.3605 12.757 17.3767 13.0525 17.1668 13.1749L12.1131 19.2045L6.83842 13.346C6.62828 13.2281 6.6364 12.9361 6.85281 12.829L9.9741 11.285L6.83842 7.80222C6.62828 7.68441 6.6364 7.39236 6.85281 7.28531L11.8186 4.82879C11.905 4.7861 12.0073 4.78442 12.0951 4.82426Z" fill="white"/>
<path fill-rule="evenodd" clip-rule="evenodd" d="M17.2713 6.84562L12.2283 4.55746C12.0527 4.47778 11.848 4.48113 11.6754 4.56652L6.70952 7.02304C6.29463 7.22827 6.26252 7.77349 6.63079 8.02585L9.48363 11.1945L6.70952 12.5668C6.29463 12.772 6.26252 13.3172 6.63079 13.5696L11.8773 19.3969C11.9375 19.4637 12.0258 19.5015 12.1183 19.5C12.2107 19.4984 12.2976 19.4577 12.3553 19.3889L17.3805 13.3932C17.7448 13.1316 17.6967 12.5824 17.2713 12.3894L14.5937 11.1745L17.3805 7.8495C17.7448 7.58784 17.6967 7.03863 17.2713 6.84562ZM14.1962 11.6487L12.3553 13.8451C12.2976 13.9139 12.2107 13.9547 12.1183 13.9562C12.0258 13.9578 11.9375 13.92 11.8773 13.8531L9.89847 11.6552L6.99553 13.0913L11.9522 15.8702L17.0044 12.9229L14.1962 11.6487ZM11.6375 10.8358L8.28686 8.95731L12.1043 13.1973L15.8214 8.76244L12.2763 10.8305C12.0807 10.9446 11.835 10.9465 11.6375 10.8358ZM11.9614 5.09101L17.0045 7.37919L11.9522 10.3264L6.99553 7.54753L11.9614 5.09101ZM12.2764 16.3742L15.8214 14.3062L12.1043 18.741L8.28686 14.501L11.6375 16.3795C11.835 16.4902 12.0808 16.4883 12.2764 16.3742Z" fill="black"/>
</g>
<defs>
<clipPath id="clip0">
<rect width="24" height="24" fill="white"/>
</clipPath>
</defs>
</svg>
