<svg width="24" height="24" viewBox="0 0 24 24" fill="none" xmlns="http://www.w3.org/2000/svg">
<path fill-rule="evenodd" clip-rule="evenodd" d="M12 24C18.6274 24 24 18.6274 24 12C24 5.37258 18.6274 -8.1423e-07 12 -5.24537e-07C5.37258 -2.34843e-07 -8.1423e-07 5.37258 -5.24537e-07 12C-2.34843e-07 18.6274 5.37258 24 12 24ZM5.37512 10.6902L6.03212 10.0332L11.1 12.5712L11.1 19.0503C10.9395 18.9701 10.7935 18.8636 10.668 18.7353L5.37512 13.3902C5.19328 13.2155 5.0486 13.0058 4.94977 12.7739C4.85094 12.5419 4.8 12.2923 4.8 12.0402C4.8 11.788 4.85094 11.5384 4.94977 11.3065C5.0486 11.0745 5.19328 10.8649 5.37512 10.6902ZM17.9679 10.0332L18.6249 10.6902C18.8067 10.8649 18.9514 11.0745 19.0502 11.3065C19.1491 11.5384 19.2 11.788 19.2 12.0402C19.2 12.2923 19.1491 12.5419 19.0502 12.7739C18.9514 13.0058 18.8067 13.2155 18.6249 13.3902L13.332 18.7353C13.2065 18.8636 13.0605 18.9701 12.9 19.0503L12.9 12.5712L17.9679 10.0332ZM13.3851 5.37117L16.6971 8.69217L12.0171 11.0142L7.36413 8.69217L10.6851 5.37117C10.8605 5.19046 11.0703 5.04678 11.3022 4.94867C11.5341 4.85055 11.7833 4.8 12.0351 4.8C12.2869 4.8 12.5362 4.85055 12.7681 4.94867C13 5.04678 13.2098 5.19046 13.3851 5.37117Z" fill="#98A1B2"/>
</svg>
