<svg width="15" height="15" viewBox="0 0 15 15" fill="none" xmlns="http://www.w3.org/2000/svg">
<path d="M14.1895 9.66997C14.1895 10.2223 13.7418 10.67 13.1895 10.67H12.5195C11.9672 10.67 11.5195 10.2223 11.5195 9.66997V4.55509L2.18087 13.8937C1.79034 14.2842 1.15718 14.2842 0.766654 13.8937L0.292894 13.4199C-0.0976311 13.0294 -0.0976311 12.3962 0.292893 12.0057L9.62862 2.66997L4.51953 2.66997C3.96725 2.66997 3.51953 2.22225 3.51953 1.66997V0.999969C3.51953 0.447685 3.96725 -3.05176e-05 4.51953 -3.05176e-05L13.1895 -2.95639e-05C13.7418 -2.95639e-05 14.1895 0.447686 14.1895 0.99997V9.66997Z" fill="#0C6CF2"/>
</svg>
