<svg width="24" height="24" viewBox="0 0 24 24" fill="none" xmlns="http://www.w3.org/2000/svg">
<path d="M3.30237 7.76353C2.47743 7.76353 1.83997 8.43849 1.83997 9.22594V15.413C1.83997 16.238 2.51492 16.9129 3.33987 16.9129C4.16482 16.9129 4.83978 16.238 4.80228 15.413V9.22594C4.80228 8.43849 4.12732 7.76353 3.30237 7.76353ZM15.2641 2.17638L16.314 0.3015C16.3515 0.189007 16.3515 0.0765146 16.2391 0.039017C16.1266 0.00151934 16.0141 0.039017 15.9766 0.114012L14.9266 2.02639C14.0642 1.65141 13.0518 1.42643 12.0393 1.42643C10.9894 1.42643 10.0144 1.65141 9.152 2.02639L8.10207 0.114012C8.06457 0.00151934 7.91458 -0.0359783 7.83959 0.039017C7.72709 0.0765146 7.6896 0.226505 7.76459 0.3015L8.81452 2.17638C6.67716 3.22632 5.32725 5.25119 5.32725 7.53854H18.6764C18.6764 5.25119 17.289 3.22632 15.2641 2.17638ZM8.96452 5.1012C8.66453 5.1012 8.40205 4.83871 8.40205 4.53873C8.40205 4.23875 8.66453 3.97627 8.96452 3.97627C9.2645 3.97627 9.52698 4.23875 9.52698 4.53873C9.52698 4.87621 9.2645 5.1012 8.96452 5.1012ZM15.0391 5.1012C14.7392 5.1012 14.4767 4.83871 14.4767 4.53873C14.4767 4.23875 14.7392 3.97627 15.0391 3.97627C15.3391 3.97627 15.6016 4.23875 15.6016 4.53873C15.6016 4.87621 15.3391 5.1012 15.0391 5.1012ZM5.36474 8.02601V17.6254C5.36474 18.4879 6.0772 19.2003 6.93964 19.2003H8.02707V22.5001C8.02707 23.325 8.70203 24 9.48948 24C10.3144 24 10.9894 23.325 10.9894 22.5001V19.2003H12.9768V22.5001C12.9768 23.325 13.6517 24 14.4392 23.9625C15.2641 23.9625 15.9391 23.2875 15.9391 22.4626V19.2003H17.0265C17.889 19.2003 18.6014 18.4879 18.6014 17.6254V8.02601H5.36474ZM22.1637 9.22594C22.1637 8.40099 21.4887 7.76353 20.7013 7.76353C19.8763 7.76353 19.2389 8.43849 19.2389 9.26343V15.4505C19.2389 16.2755 19.9138 16.9129 20.7013 16.9129C21.5262 16.9129 22.1637 16.238 22.1637 15.413V9.22594Z" fill="#98A1B2"/>
</svg>
