<svg width="24" height="24" viewBox="0 0 24 24" fill="none" xmlns="http://www.w3.org/2000/svg">
<path fill-rule="evenodd" clip-rule="evenodd" d="M12 24C18.6274 24 24 18.6274 24 12C24 5.37258 18.6274 0 12 0C5.37258 0 0 5.37258 0 12C0 18.6274 5.37258 24 12 24Z" fill="#F0F2F7"/>
<path fill-rule="evenodd" clip-rule="evenodd" d="M7.75738 7.75739C7.36686 8.14791 7.36686 8.78108 7.75738 9.1716L10.5858 12L7.75738 14.8284C7.36686 15.2189 7.36686 15.8521 7.75738 16.2426C8.14791 16.6331 8.78107 16.6331 9.1716 16.2426L12 13.4142L14.8285 16.2427C15.219 16.6332 15.8521 16.6332 16.2427 16.2427C16.6332 15.8521 16.6332 15.219 16.2427 14.8285L13.4142 12L16.2427 9.17154C16.6332 8.78102 16.6332 8.14785 16.2427 7.75733C15.8521 7.3668 15.219 7.3668 14.8285 7.75733L12 10.5858L9.1716 7.75739C8.78107 7.36686 8.14791 7.36686 7.75738 7.75739Z" fill="#98A1B2"/>
</svg>
