<svg width="18" height="18" viewBox="0 0 18 18" fill="none" xmlns="http://www.w3.org/2000/svg">
<path fill-rule="evenodd" clip-rule="evenodd" d="M3.99984 5.24999C4.69019 5.24999 5.24984 4.69035 5.24984 3.99999C5.24984 3.30963 4.69019 2.74999 3.99984 2.74999C3.30948 2.74999 2.74984 3.30963 2.74984 3.99999C2.74984 4.69035 3.30948 5.24999 3.99984 5.24999ZM3.99984 7.33332C5.84079 7.33332 7.33317 5.84094 7.33317 3.99999C7.33317 2.15904 5.84079 0.666656 3.99984 0.666656C2.15889 0.666656 0.666504 2.15904 0.666504 3.99999C0.666504 5.84094 2.15889 7.33332 3.99984 7.33332ZM16.9013 2.16926L16.1058 1.37376C15.7153 0.983239 15.0821 0.98324 14.6916 1.37376L1.37442 14.6909C0.983891 15.0815 0.983891 15.7146 1.37442 16.1052L2.16991 16.9007C2.56043 17.2912 3.1936 17.2912 3.58413 16.9006L16.9013 3.58347C17.2918 3.19295 17.2918 2.55978 16.9013 2.16926ZM15.2498 14C15.2498 14.6903 14.6902 15.25 13.9998 15.25C13.3095 15.25 12.7498 14.6903 12.7498 14C12.7498 13.3096 13.3095 12.75 13.9998 12.75C14.6902 12.75 15.2498 13.3096 15.2498 14ZM17.3332 14C17.3332 15.8409 15.8408 17.3333 13.9998 17.3333C12.1589 17.3333 10.6665 15.8409 10.6665 14C10.6665 12.159 12.1589 10.6667 13.9998 10.6667C15.8408 10.6667 17.3332 12.159 17.3332 14Z" fill="#0C6CF2"/>
</svg>
