<svg width="24" height="24" viewBox="0 0 24 24" fill="none" xmlns="http://www.w3.org/2000/svg">
<path fill-rule="evenodd" clip-rule="evenodd" d="M8.80875 1.97534C8.20626 2.06743 7.68967 2.45452 7.43209 3.0069L1.6814 15.3393C1.25594 16.2517 1.65069 17.3363 2.5631 17.7617L14.1276 23.1543C15.04 23.5798 16.1246 23.1851 16.55 22.2726L22.3007 9.94025C22.5583 9.38788 22.5228 8.74332 22.206 8.2226L18.2213 1.67147C17.8389 1.04275 17.116 0.705631 16.3885 0.816816L8.80875 1.97534ZM14.8935 6.41545C15.8059 6.84091 16.8905 6.44616 17.3159 5.53375C17.7414 4.62134 17.3467 3.53677 16.4343 3.11131C15.5218 2.68584 14.4373 3.08059 14.0118 3.99301C13.5863 4.90542 13.9811 5.98998 14.8935 6.41545ZM9.60778 6.96762C9.15157 6.75489 8.60929 6.95226 8.39655 7.40847C8.18382 7.86468 8.3812 8.40696 8.8374 8.61969L17.0977 12.4716C17.554 12.6843 18.0962 12.4869 18.309 12.0307C18.5217 11.5745 18.3243 11.0322 17.8681 10.8195L9.60778 6.96762ZM8.06703 10.2718C7.61082 10.059 7.06854 10.2564 6.85581 10.7126C6.64308 11.1688 6.84045 11.7111 7.29666 11.9238L11.4268 13.8498C11.883 14.0625 12.4253 13.8651 12.6381 13.4089C12.8508 12.9527 12.6534 12.4104 12.1972 12.1977L8.06703 10.2718ZM5.31506 14.0167C5.5278 13.5605 6.07008 13.3632 6.52629 13.5759L12.3085 16.2722C12.7647 16.4849 12.9621 17.0272 12.7494 17.4834C12.5366 17.9396 11.9944 18.137 11.5382 17.9243L5.75591 15.228C5.29971 15.0152 5.10233 14.473 5.31506 14.0167Z" fill="#98A1B2"/>
</svg>
