<svg width="24" height="24" viewBox="0 0 24 24" fill="none" xmlns="http://www.w3.org/2000/svg">
<path fill-rule="evenodd" clip-rule="evenodd" d="M11.301 17.7112C11.6904 18.0963 12.3096 18.0963 12.699 17.7112L20.422 10.0716C20.8113 9.68658 21.0413 9.15583 20.9938 8.60518C20.5776 3.78041 16.7098 0 12 0C7.29017 0 3.42243 3.78041 3.00617 8.60518C2.95867 9.15583 3.18874 9.68658 3.578 10.0716L11.301 17.7112ZM9.6482 8.0621C9.53656 8.27091 9.531 8.51736 9.60313 8.74289L11.7619 15.493C11.836 15.7248 12.164 15.7248 12.2381 15.493L14.3969 8.74289C14.469 8.51736 14.4634 8.27091 14.3518 8.0621C13.8469 7.1177 12.9821 6.49503 12 6.49503C11.0179 6.49503 10.1531 7.1177 9.6482 8.0621ZM13.8286 14.8203C13.7537 14.8978 13.6261 14.8184 13.6626 14.717L15.601 9.32266C16.081 8.28631 16.9704 7.57753 18.0913 7.57753C18.4865 7.57753 18.8632 7.66564 19.2063 7.82514C19.7106 8.05955 19.7122 8.73051 19.3234 9.13298L13.8286 14.8203ZM8.39902 9.32266L10.3374 14.717C10.3739 14.8184 10.2463 14.8978 10.1714 14.8203L4.67665 9.13298C4.2878 8.73051 4.2894 8.05955 4.7937 7.82514C5.13683 7.66564 5.51351 7.57753 5.9087 7.57753C7.02961 7.57753 7.91895 8.28631 8.39902 9.32266Z" fill="#98A1B2"/>
<path d="M14.5 21.5C14.5 22.8807 13.3807 24 12 24C10.6193 24 9.5 22.8807 9.5 21.5C9.5 20.1193 10.6193 19 12 19C13.3807 19 14.5 20.1193 14.5 21.5Z" fill="#98A1B2"/>
</svg>
