<svg width="24" height="24" viewBox="0 0 24 24" fill="none" xmlns="http://www.w3.org/2000/svg">
<path d="M3.49998 4.3C3.49998 2.76 4.75998 1.5 6.29998 1.5C7.83998 1.5 9.09998 2.76 9.09998 4.3C9.09998 5.84 7.83998 7.1 6.29998 7.1C4.75998 7.1 3.49998 5.84 3.49998 4.3Z" fill="#98A1B2"/>
<path d="M14.5 11.9999C14.5 10.4599 15.76 9.19989 17.3 9.19989C18.84 9.19989 20.1 10.4599 20.1 11.9999C20.1 13.5399 18.84 14.7999 17.3 14.7999C15.76 14.7999 14.5 13.5399 14.5 11.9999Z" fill="#98A1B2"/>
<path d="M10.3 16.9C8.75998 16.9 7.49998 18.16 7.49998 19.7C7.49998 21.24 8.75998 22.5 10.3 22.5C11.84 22.5 13.1 21.24 13.1 19.7C13.1 18.16 11.84 16.9 10.3 16.9Z" fill="#98A1B2"/>
<path d="M2.28911 2.89999H21.7999C22.2199 2.89999 22.4999 3.17999 22.4999 3.59999V4.99999C22.4999 5.41999 22.2199 5.69999 21.7999 5.69999H2.28911C1.86911 5.69999 1.58911 5.41999 1.58911 4.99999V3.59999C1.58911 3.17999 1.86911 2.89999 2.28911 2.89999Z" fill="#98A1B2"/>
<path d="M21.7999 10.6H2.28911C1.86911 10.6 1.58911 10.88 1.58911 11.3V12.7C1.58911 13.12 1.86911 13.4 2.28911 13.4H21.7999C22.2199 13.4 22.4999 13.12 22.4999 12.7V11.3C22.4999 10.88 22.2199 10.6 21.7999 10.6Z" fill="#98A1B2"/>
<path d="M2.28911 18.2999H21.7999C22.2199 18.2999 22.4999 18.5799 22.4999 18.9999V20.3999C22.4999 20.8199 22.2199 21.0999 21.7999 21.0999H2.28911C1.86911 21.0999 1.58911 20.8199 1.58911 20.3999V18.9999C1.58911 18.5799 1.86911 18.2999 2.28911 18.2999Z" fill="#98A1B2"/>
</svg>
