<svg width="24" height="24" viewBox="0 0 24 24" fill="none" xmlns="http://www.w3.org/2000/svg">
<path d="M7.92338 22C8.49769 22 8.96325 21.5344 8.96325 20.9601V15.9427C8.96325 15.3684 9.42882 14.9029 10.0031 14.9029H14.0066C14.5809 14.9029 15.0465 15.3684 15.0465 15.9427V20.9601C15.0465 21.5344 15.5121 22 16.0864 22H20.0899C20.6642 22 21.1298 21.5344 21.1298 20.9601V9.83679C21.1298 9.195 20.8334 8.58916 20.3268 8.19514L12.6433 2.21905C12.2678 1.92698 11.742 1.92698 11.3665 2.21905L3.68291 8.19514C3.17631 8.58916 2.88 9.195 2.88 9.83679V20.9601C2.88 21.5344 3.34557 22 3.91988 22H7.92338Z" fill="#98A1B2"/>
</svg>
