<svg width="24" height="24" viewBox="0 0 24 24" fill="none" xmlns="http://www.w3.org/2000/svg">
<path d="M17.2857 5.28571L12.0714 0L6.78571 5.28571L12.0714 10.5L17.2857 5.28571ZM8.92857 5.28571L12.0714 2.14286L15.1429 5.28571L12.0714 8.35714L8.92857 5.28571ZM24 12L18.7857 6.78571L13.5714 12L18.7857 17.2857L24 12ZM10.5714 12L5.28571 6.78571L0 12L5.28571 17.2857L10.5714 12ZM15.6429 12L18.7857 8.85714L21.9286 12L18.7857 15.1429L15.6429 12ZM2.14286 12L5.28571 8.85714L8.42857 12L5.28571 15.1429L2.14286 12ZM17.2857 18.7857L12.0714 13.5L6.78571 18.7857L12.0714 24L17.2857 18.7857ZM8.92857 18.7857L12.0714 15.6429L15.1429 18.7857L12.0714 21.8571L8.92857 18.7857Z" fill="#98A1B2"/>
</svg>
